<?xml version="1.0" encoding="UTF-8" standalone="no"?>
<!-- Created with Inkscape (http://www.inkscape.org/) -->

<svg
   width="210mm"
   height="297mm"
   viewBox="0 0 210 297"
   version="1.1"
   id="svg5"
   inkscape:version="1.2.2 (732a01da63, 2022-12-09)"
   sodipodi:docname="crtež1 vježba4.svg"
   xmlns:inkscape="http://www.inkscape.org/namespaces/inkscape"
   xmlns:sodipodi="http://sodipodi.sourceforge.net/DTD/sodipodi-0.dtd"
   xmlns:xlink="http://www.w3.org/1999/xlink"
   xmlns="http://www.w3.org/2000/svg"
   xmlns:svg="http://www.w3.org/2000/svg">
  <sodipodi:namedview
     id="namedview7"
     pagecolor="#ffffff"
     bordercolor="#000000"
     borderopacity="0.25"
     inkscape:showpageshadow="2"
     inkscape:pageopacity="0.0"
     inkscape:pagecheckerboard="0"
     inkscape:deskcolor="#d1d1d1"
     inkscape:document-units="mm"
     showgrid="false"
     inkscape:zoom="0.93971493"
     inkscape:cx="346.91372"
     inkscape:cy="371.9213"
     inkscape:window-width="1600"
     inkscape:window-height="822"
     inkscape:window-x="-8"
     inkscape:window-y="-8"
     inkscape:window-maximized="1"
     inkscape:current-layer="g1251" />
  <defs
     id="defs2">
    <linearGradient
       inkscape:collect="always"
       id="linearGradient1929">
      <stop
         style="stop-color:#ff7838;stop-opacity:1;"
         offset="0.30538923"
         id="stop1925" />
      <stop
         style="stop-color:#ffd511;stop-opacity:0.49450549;"
         offset="1"
         id="stop1927" />
    </linearGradient>
    <linearGradient
       inkscape:collect="always"
       id="linearGradient1889">
      <stop
         style="stop-color:#fde399;stop-opacity:1;"
         offset="0.21257485"
         id="stop1897" />
      <stop
         style="stop-color:#fedb7f;stop-opacity:1;"
         offset="0.75748497"
         id="stop1895" />
      <stop
         style="stop-color:#fdaa08;stop-opacity:1;"
         offset="0.87425148"
         id="stop1885" />
      <stop
         style="stop-color:#fb7c2b;stop-opacity:1;"
         offset="1"
         id="stop1887" />
    </linearGradient>
    <linearGradient
       inkscape:collect="always"
       id="linearGradient1657">
      <stop
         style="stop-color:#ffffff;stop-opacity:1;"
         offset="0"
         id="stop1653" />
      <stop
         style="stop-color:#ffffff;stop-opacity:0;"
         offset="1"
         id="stop1655" />
    </linearGradient>
    <linearGradient
       inkscape:collect="always"
       id="linearGradient1517">
      <stop
         style="stop-color:#ffffff;stop-opacity:0;"
         offset="0"
         id="stop1521" />
      <stop
         style="stop-color:#ffffff;stop-opacity:1;"
         offset="0.4790419"
         id="stop1513" />
      <stop
         style="stop-color:#ffffff;stop-opacity:0;"
         offset="1"
         id="stop1515" />
    </linearGradient>
    <linearGradient
       inkscape:collect="always"
       id="linearGradient1353">
      <stop
         style="stop-color:#ffffff;stop-opacity:1;"
         offset="0"
         id="stop1349" />
      <stop
         style="stop-color:#ffffff;stop-opacity:0.15384616;"
         offset="1"
         id="stop1351" />
    </linearGradient>
    <linearGradient
       inkscape:collect="always"
       id="linearGradient1257">
      <stop
         style="stop-color:#cbd6e1;stop-opacity:0.31868133;"
         offset="0"
         id="stop1253" />
      <stop
         style="stop-color:#fbfbfb;stop-opacity:0.02747253;"
         offset="1"
         id="stop1255" />
    </linearGradient>
    <linearGradient
       inkscape:collect="always"
       id="linearGradient1118">
      <stop
         style="stop-color:#f90c53;stop-opacity:1;"
         offset="0"
         id="stop1114" />
      <stop
         style="stop-color:#a50445;stop-opacity:1;"
         offset="0.44365749"
         id="stop1246" />
      <stop
         style="stop-color:#2f0281;stop-opacity:1;"
         offset="1"
         id="stop1116" />
    </linearGradient>
    <linearGradient
       inkscape:collect="always"
       id="linearGradient1999">
      <stop
         style="stop-color:#94f7f7;stop-opacity:1;"
         offset="0"
         id="stop1995" />
      <stop
         style="stop-color:#fcfeff;stop-opacity:1;"
         offset="0.31"
         id="stop2034" />
      <stop
         style="stop-color:#404658;stop-opacity:1;"
         offset="1"
         id="stop1997" />
    </linearGradient>
    <linearGradient
       inkscape:collect="always"
       id="linearGradient1764">
      <stop
         style="stop-color:#08dc00;stop-opacity:1;"
         offset="0"
         id="stop1760" />
      <stop
         style="stop-color:#416019;stop-opacity:1;"
         offset="1"
         id="stop1762" />
    </linearGradient>
    <clipPath
       clipPathUnits="userSpaceOnUse"
       id="clipPath2383">
      <path
         style="fill:#000000;fill-opacity:1;stroke:none;stroke-width:2.11667;stroke-linecap:round;stroke-linejoin:round"
         d="m 50.653601,35.23728 3.775424,12.270126 -6.60699,-0.314619 z"
         id="path2385" />
    </clipPath>
    <radialGradient
       inkscape:collect="always"
       xlink:href="#linearGradient1764"
       id="radialGradient1855"
       cx="51.14146"
       cy="-16.141565"
       fx="51.14146"
       fy="-16.141565"
       r="91.919547"
       gradientTransform="matrix(1.6462345,0.6163564,-0.10314957,0.2755089,-34.935515,3.6118811)"
       gradientUnits="userSpaceOnUse" />
    <radialGradient
       inkscape:collect="always"
       xlink:href="#linearGradient1999"
       id="radialGradient2001"
       cx="72.797211"
       cy="165.72058"
       fx="72.797211"
       fy="165.72058"
       r="37.635982"
       gradientTransform="matrix(0.54576578,3.4690419,-2.9182189,0.4591952,518.13961,-188.91649)"
       gradientUnits="userSpaceOnUse" />
    <linearGradient
       inkscape:collect="always"
       xlink:href="#linearGradient1118"
       id="linearGradient1120"
       x1="80.654633"
       y1="144.52177"
       x2="95.529671"
       y2="192.70175"
       gradientUnits="userSpaceOnUse" />
    <linearGradient
       inkscape:collect="always"
       xlink:href="#linearGradient1257"
       id="linearGradient1259"
       x1="85.903374"
       y1="151.7309"
       x2="87.909904"
       y2="254.85997"
       gradientUnits="userSpaceOnUse" />
    <linearGradient
       inkscape:collect="always"
       xlink:href="#linearGradient1353"
       id="linearGradient1355"
       x1="58.628449"
       y1="156.84001"
       x2="77.844534"
       y2="156.84001"
       gradientUnits="userSpaceOnUse" />
    <linearGradient
       inkscape:collect="always"
       xlink:href="#linearGradient1353"
       id="linearGradient1359"
       gradientUnits="userSpaceOnUse"
       x1="45.886635"
       y1="157.23819"
       x2="66.69545"
       y2="154.45093"
       gradientTransform="matrix(-1,0,0,1,171.51298,-1.1945453)" />
    <linearGradient
       inkscape:collect="always"
       xlink:href="#linearGradient1353"
       id="linearGradient1363"
       gradientUnits="userSpaceOnUse"
       gradientTransform="matrix(-1,0,0,1,156.58117,10.054089)"
       x1="37.325726"
       y1="155.14774"
       x2="66.69545"
       y2="154.45093" />
    <linearGradient
       inkscape:collect="always"
       xlink:href="#linearGradient1517"
       id="linearGradient1519"
       x1="83.020889"
       y1="219.45229"
       x2="89.837769"
       y2="219.65138"
       gradientUnits="userSpaceOnUse" />
    <filter
       inkscape:collect="always"
       style="color-interpolation-filters:sRGB"
       id="filter1531"
       x="-0.082669457"
       y="-0.023716097"
       width="1.1653389"
       height="1.0474322">
      <feGaussianBlur
         inkscape:collect="always"
         stdDeviation="0.49611412"
         id="feGaussianBlur1533" />
    </filter>
    <filter
       inkscape:collect="always"
       style="color-interpolation-filters:sRGB"
       id="filter1593"
       x="-0.12406888"
       y="-0.13195765"
       width="1.2481378"
       height="1.2639153">
      <feGaussianBlur
         inkscape:collect="always"
         stdDeviation="1.893742"
         id="feGaussianBlur1595" />
    </filter>
    <radialGradient
       inkscape:collect="always"
       xlink:href="#linearGradient1657"
       id="radialGradient1661"
       cx="78.826645"
       cy="230.02849"
       fx="78.826645"
       fy="230.02849"
       r="32.068657"
       gradientTransform="matrix(1.6950024,0.24284653,-0.06648277,0.4640316,-39.692554,119.06465)"
       gradientUnits="userSpaceOnUse" />
    <filter
       inkscape:collect="always"
       style="color-interpolation-filters:sRGB"
       id="filter1663"
       x="-0.038431531"
       y="-0.18450575"
       width="1.0768631"
       height="1.3690115">
      <feGaussianBlur
         inkscape:collect="always"
         stdDeviation="1.0270396"
         id="feGaussianBlur1665" />
    </filter>
    <filter
       inkscape:collect="always"
       style="color-interpolation-filters:sRGB"
       id="filter1881"
       x="-0.011663953"
       y="-0.012182664"
       width="1.0233279"
       height="1.0243653">
      <feGaussianBlur
         inkscape:collect="always"
         stdDeviation="0.13634974"
         id="feGaussianBlur1883" />
    </filter>
    <radialGradient
       inkscape:collect="always"
       xlink:href="#linearGradient1889"
       id="radialGradient1893"
       cx="149.21861"
       cy="157.13866"
       fx="149.21861"
       fy="157.13866"
       r="14.029364"
       gradientTransform="matrix(1,0,0,0.9574269,0,6.6898797)"
       gradientUnits="userSpaceOnUse" />
    <radialGradient
       inkscape:collect="always"
       xlink:href="#linearGradient1929"
       id="radialGradient1933"
       cx="149.04103"
       cy="156.98207"
       fx="149.04103"
       fy="156.98207"
       r="11.858265"
       gradientTransform="matrix(1,0,0,0.99933481,0,0.10442265)"
       gradientUnits="userSpaceOnUse" />
    <radialGradient
       inkscape:collect="always"
       xlink:href="#linearGradient1929"
       id="radialGradient1955"
       gradientUnits="userSpaceOnUse"
       gradientTransform="matrix(1,0,0,0.99933481,0,0.10442265)"
       cx="149.04103"
       cy="156.98207"
       fx="149.04103"
       fy="156.98207"
       r="11.858265" />
    <radialGradient
       inkscape:collect="always"
       xlink:href="#linearGradient1929"
       id="radialGradient1957"
       gradientUnits="userSpaceOnUse"
       gradientTransform="matrix(1,0,0,0.99933481,0,0.10442265)"
       cx="149.04103"
       cy="156.98207"
       fx="149.04103"
       fy="156.98207"
       r="11.858265" />
    <radialGradient
       inkscape:collect="always"
       xlink:href="#linearGradient1929"
       id="radialGradient1959"
       gradientUnits="userSpaceOnUse"
       gradientTransform="matrix(1,0,0,0.99933481,0,0.10442265)"
       cx="149.04103"
       cy="156.98207"
       fx="149.04103"
       fy="156.98207"
       r="11.858265" />
    <radialGradient
       inkscape:collect="always"
       xlink:href="#linearGradient1929"
       id="radialGradient1961"
       gradientUnits="userSpaceOnUse"
       gradientTransform="matrix(1,0,0,0.99933481,0,0.10442265)"
       cx="149.04103"
       cy="156.98207"
       fx="149.04103"
       fy="156.98207"
       r="11.858265" />
    <radialGradient
       inkscape:collect="always"
       xlink:href="#linearGradient1929"
       id="radialGradient1963"
       gradientUnits="userSpaceOnUse"
       gradientTransform="matrix(1,0,0,0.99933481,0,0.10442265)"
       cx="149.04103"
       cy="156.98207"
       fx="149.04103"
       fy="156.98207"
       r="11.858265" />
    <radialGradient
       inkscape:collect="always"
       xlink:href="#linearGradient1929"
       id="radialGradient1965"
       gradientUnits="userSpaceOnUse"
       gradientTransform="matrix(1,0,0,0.99933481,0,0.10442265)"
       cx="149.04103"
       cy="156.98207"
       fx="149.04103"
       fy="156.98207"
       r="11.858265" />
    <radialGradient
       inkscape:collect="always"
       xlink:href="#linearGradient1929"
       id="radialGradient1967"
       gradientUnits="userSpaceOnUse"
       gradientTransform="matrix(1,0,0,0.99933481,0,0.10442265)"
       cx="149.04103"
       cy="156.98207"
       fx="149.04103"
       fy="156.98207"
       r="11.858265" />
    <radialGradient
       inkscape:collect="always"
       xlink:href="#linearGradient1929"
       id="radialGradient1969"
       gradientUnits="userSpaceOnUse"
       gradientTransform="matrix(1,0,0,0.99933481,0,0.10442265)"
       cx="149.04103"
       cy="156.98207"
       fx="149.04103"
       fy="156.98207"
       r="11.858265" />
  </defs>
  <g
     inkscape:label="Sloj 1"
     inkscape:groupmode="layer"
     id="layer1">
    <path
       id="path1881"
       style="fill:url(#radialGradient1855);fill-opacity:1;stroke:none;stroke-width:2.17106;stroke-linecap:round;stroke-linejoin:round;stroke-opacity:1"
       d="m 183.06689,24.026439 c -33.64797,-12.813018 -70.85145,25.524548 -45.71737,49.486139 6.34037,4.79653 18.79863,15.325497 46.49601,3.860621 27.69739,-11.464873 9.43579,-24.687298 2.8921,-18.952139 -6.67406,5.849425 -7.89764,10.645953 -20.46714,8.189195 -12.5695,-2.456759 -17.68628,-12.51777 -16.35147,-20.005034 1.33481,-7.487265 6.89654,-10.87993 8.67629,-11.932829 1.77975,-1.052895 8.78752,-5.264481 17.13011,-2.573746 8.34259,2.690737 11.67962,6.434368 12.9032,8.540161 1.22358,2.105795 5.67296,4.094598 7.56394,0.116988 1.89099,-3.977609 2.11346,-7.078757 -0.55617,-9.418528 -2.66963,-2.339771 -2.2708,-2.811849 -12.5695,-7.310828 z M 98.69675,20.922741 c -6.682699,0.03293 -13.293763,1.087273 -13.293763,1.087273 l 0.444934,60.288826 c 0,0 32.480679,7.786236 35.595239,-11.791012 2.10908,-13.257089 -6.42166,-19.341473 -13.70148,-21.06538 2.00461,-0.337404 4.06416,-0.943344 5.69267,-1.960087 3.58197,-2.236357 5.34459,-6.568255 5.33921,-11.012248 -0.005,-4.449372 -2.89227,-12.012941 -10.45621,-14.460099 -2.6001,-0.84121 -6.12014,-1.104524 -9.6206,-1.087273 z m -1.94769,10.430888 c 0,0 9.12128,-0.111142 9.23252,4.783171 0.11123,4.89431 -9.12141,5.116483 -9.12141,5.116483 z m 1.00098,29.254029 c 0,0 9.23263,0.22269 9.1214,5.117 -0.11124,4.894313 -9.23251,4.78317 -9.23251,4.78317 z M 52.94413,21.025585 31.550087,21.654488 14.875136,82.690555 32.179506,82.061653 37.213308,64.44309 50.112779,64.128381 54.83187,83.005265 72.450433,82.690555 Z m -9.752893,15.416114 4.404383,12.270052 -9.438701,0.314709 z" />
    <g
       id="g1251">
      <path
         id="path1993"
         style="display:inline;opacity:0.924399;fill:url(#radialGradient2001);fill-opacity:1;stroke:none;stroke-width:0.705556;stroke-linecap:round;stroke-linejoin:round;stroke-dasharray:none;stroke-opacity:1"
         d="m 59.976838,130.10475 c 0,0 -9.395129,40.92321 0,49.17637 10.697025,9.39679 22.47481,6.95611 24.225394,23.4921 1.539255,14.53975 -1.313992,40.59948 -1.57303,40.40606 0,0 -27.950306,5.88637 -33.067829,10.45217 -3.065004,2.73456 15.193128,4.4841 37.249843,4.5371 22.148534,0.0532 40.218004,-1.67787 36.496634,-4.5371 -5.87771,-4.51601 -33.349897,-10.45217 -33.349897,-10.45217 -0.259038,0.19342 -3.112285,-25.86631 -1.57303,-40.40606 1.750584,-16.53599 13.528877,-14.09531 24.225907,-23.4921 9.39512,-8.25316 0,-49.17637 0,-49.17637 H 87.663003 84.924152 Z"
         sodipodi:nodetypes="csscssscsscccc"
         inkscape:label="gradijent" />
      <path
         id="path907"
         style="display:inline;opacity:1;fill:url(#linearGradient1120);fill-opacity:1;stroke:none;stroke-width:0.705556;stroke-linecap:round;stroke-linejoin:round;stroke-opacity:1"
         d="m 114.07908,157.13866 c 2.53122,9.51043 -3.0169,28.74576 -25.881821,27.97226 -27.075335,-0.91593 -31.772446,-12.59689 -29.863631,-26.77771 1.36117,-10.11231 13.873447,-0.59747 28.469995,-0.49773 14.623657,0.0999 25.621067,-6.91278 27.275457,-0.69682 z"
         sodipodi:nodetypes="sssss"
         inkscape:label="tekućina" />
      <g
         id="g1953"
         inkscape:label="naranča"
         transform="matrix(1.0978412,0,0,1.1179153,-55.847835,-43.65802)">
        <ellipse
           style="opacity:1;fill:url(#radialGradient1893);fill-opacity:1;stroke:none;stroke-width:3.0349;stroke-linecap:round;stroke-linejoin:round;stroke-dasharray:none;stroke-opacity:1;filter:url(#filter1881)"
           id="path1775"
           cx="149.21861"
           cy="157.13866"
           rx="14.027807"
           ry="13.430534"
           inkscape:label="naranča" />
        <g
           id="g1923"
           style="opacity:1;fill:url(#radialGradient1933);fill-opacity:1">
          <path
             style="opacity:1;fill:url(#radialGradient1955);fill-opacity:1;stroke:none;stroke-width:3.53907;stroke-linecap:round;stroke-linejoin:round;stroke-dasharray:none;stroke-opacity:1"
             d="m 148.20432,155.03232 c -3.29565,-8.91721 -2.59038,-8.60666 -1.89926,-9.16798 1.11474,-0.90538 2.59832,-0.84361 4.02662,-0.49693 2.45987,0.89229 1.08064,2.3798 0.40615,6.28713 -0.71963,2.36457 -1.33699,6.61524 -2.5335,3.37777 z"
             id="path1899"
             sodipodi:nodetypes="ssccs"
             inkscape:transform-center-x="0.32616587"
             inkscape:transform-center-y="-6.3271659" />
          <path
             style="opacity:1;fill:url(#radialGradient1957);fill-opacity:1;stroke:none;stroke-width:3.53907;stroke-linecap:round;stroke-linejoin:round;stroke-dasharray:none;stroke-opacity:1"
             d="m 147.09329,156.14426 c -8.49931,-4.25905 -7.77216,-4.51419 -7.65108,-5.39628 0.19529,-1.42275 1.32075,-2.39136 2.60049,-3.11417 2.40578,-1.02927 2.41512,0.99924 4.59247,4.31305 1.09023,2.21821 3.54388,5.74367 0.45813,4.19739 z"
             id="path1901"
             sodipodi:nodetypes="ssccs"
             inkscape:transform-center-x="5.0719622"
             inkscape:transform-center-y="-5.0502466" />
          <path
             style="opacity:1;fill:url(#radialGradient1959);fill-opacity:1;stroke:none;stroke-width:3.53907;stroke-linecap:round;stroke-linejoin:round;stroke-dasharray:none;stroke-opacity:1"
             d="m 147.07099,157.79208 c -9.00571,3.0455 -8.67558,2.34919 -9.21741,1.64266 -0.87392,-1.13957 -0.77078,-2.62085 -0.38437,-4.03892 0.96059,-2.43401 2.40904,-1.0138 6.29603,-0.23055 2.34356,0.78535 6.57534,1.52109 3.30575,2.62679 z"
             id="path1903"
             sodipodi:nodetypes="ssccs"
             inkscape:transform-center-x="6.3326964"
             inkscape:transform-center-y="0.044931177" />
          <path
             style="opacity:1;fill:url(#radialGradient1961);fill-opacity:1;stroke:none;stroke-width:3.53907;stroke-linecap:round;stroke-linejoin:round;stroke-dasharray:none;stroke-opacity:1"
             d="m 148.25172,158.9774 c -4.06075,8.59582 -4.33268,7.87479 -5.21736,7.7742 -1.42689,-0.16225 -2.42134,-1.26492 -3.17364,-2.52756 -1.08481,-2.38124 0.94295,-2.43764 4.20536,-4.69128 2.19232,-1.14138 5.65991,-3.67616 4.18564,-0.55538 z"
             id="path1905"
             sodipodi:nodetypes="ssccs"
             inkscape:transform-center-x="4.9705112"
             inkscape:transform-center-y="5.1475371" />
          <path
             style="opacity:1;fill:url(#radialGradient1963);fill-opacity:1;stroke:none;stroke-width:3.53907;stroke-linecap:round;stroke-linejoin:round;stroke-dasharray:none;stroke-opacity:1"
             d="m 149.99065,158.91991 c 3.66775,8.77071 2.95005,8.49008 2.28314,9.08 -1.07568,0.95144 -2.56054,0.95212 -4.00216,0.66582 -2.49521,-0.78805 -1.17975,-2.33225 -0.67021,-6.2645 0.61956,-2.39273 1.0576,-6.6656 2.3892,-3.48134 z"
             id="path1907"
             sodipodi:nodetypes="ssccs"
             inkscape:transform-center-x="-0.74937771"
             inkscape:transform-center-y="6.3132139" />
          <path
             style="opacity:1;fill:url(#radialGradient1965);fill-opacity:1;stroke:none;stroke-width:3.53907;stroke-linecap:round;stroke-linejoin:round;stroke-dasharray:none;stroke-opacity:1"
             d="m 151.10474,157.61393 c 8.93301,3.25256 8.24006,3.58969 8.22131,4.47987 -0.0303,1.43576 -1.03675,2.52746 -2.22482,3.39275 -2.27132,1.29933 -2.51406,-0.71464 -5.05834,-3.75583 -1.33827,-2.07799 -4.18137,-5.29763 -0.93818,-4.11678 z"
             id="path1909"
             sodipodi:nodetypes="ssccs"
             inkscape:transform-center-x="-5.420553"
             inkscape:transform-center-y="4.6295039" />
          <path
             style="opacity:1;fill:url(#radialGradient1967);fill-opacity:1;stroke:none;stroke-width:3.53907;stroke-linecap:round;stroke-linejoin:round;stroke-dasharray:none;stroke-opacity:1"
             d="m 150.98824,156.07465 c 8.79678,-3.6048 8.51101,-2.88911 9.09613,-2.21799 0.9437,1.08248 0.93375,2.56728 0.63712,4.00683 -0.8059,2.4895 -2.34064,1.163 -6.26914,0.6253 -2.38823,-0.6367 -6.65784,-1.10535 -3.46413,-2.41411 z"
             id="path1911"
             sodipodi:nodetypes="ssccs"
             inkscape:transform-center-x="-6.3160493"
             inkscape:transform-center-y="-0.67738666" />
          <path
             style="opacity:1;fill:url(#radialGradient1969);fill-opacity:1;stroke:none;stroke-width:3.53907;stroke-linecap:round;stroke-linejoin:round;stroke-dasharray:none;stroke-opacity:1"
             d="m 149.81347,154.99359 c 3.85251,-8.69115 4.14174,-7.97686 5.02859,-7.89763 1.43038,0.12785 2.45109,1.20623 3.23359,2.4504 1.14187,2.35441 -0.88396,2.45963 -4.09112,4.79122 -2.16419,1.19385 -5.56973,3.81141 -4.17106,0.65604 z"
             id="path1913"
             sodipodi:nodetypes="ssccs"
             inkscape:transform-center-x="-4.8850914"
             inkscape:transform-center-y="-5.2231156" />
        </g>
      </g>
      <path
         id="path1940"
         style="display:inline;fill:url(#linearGradient1259);fill-opacity:1;stroke:none;stroke-width:0.705556;stroke-linecap:round;stroke-linejoin:round;stroke-dasharray:none;stroke-opacity:1"
         d="m 59.777747,129.30839 c 0,0 -9.395129,40.92321 0,49.17637 10.697025,9.39679 22.47481,6.95611 24.225394,23.4921 1.539255,14.53975 -1.313992,40.59948 -1.57303,40.40606 0,0 -27.950306,5.88637 -33.067829,10.45217 -3.065004,2.73456 15.193128,4.4841 37.249843,4.5371 22.148535,0.0532 40.218005,-1.67787 36.496635,-4.5371 -5.87771,-4.51601 -33.349898,-10.45217 -33.349898,-10.45217 -0.259038,0.19342 -3.112285,-25.86631 -1.57303,-40.40606 1.750584,-16.53599 13.528878,-14.09531 24.225908,-23.4921 9.39512,-8.25316 0,-49.17637 0,-49.17637 H 87.463912 84.725061 Z"
         sodipodi:nodetypes="csscssscsscccc"
         inkscape:label="čaša" />
    </g>
    <path
       style="opacity:0.65292096;fill:url(#linearGradient1355);fill-opacity:1;stroke:none;stroke-width:0.705556;stroke-linecap:round;stroke-linejoin:round;stroke-opacity:1"
       d="m 61.917263,131.35638 h 15.329996 c 0,0 -7.366362,24.08999 -5.375454,32.45181 1.99091,8.36182 5.972729,18.51546 5.972729,18.51546 0,0 -14.334547,-5.97273 -17.519999,-14.13545 -2.244887,-5.75252 -1.990909,-16.92273 -0.796363,-24.28909 1.194544,-7.36637 2.389091,-12.54273 2.389091,-12.54273 z"
       id="path1315"
       sodipodi:nodetypes="ccscssc"
       inkscape:label="odsjaj" />
    <path
       style="opacity:0.652921;fill:url(#linearGradient1359);fill-opacity:1;stroke:none;stroke-width:0.705556;stroke-linecap:round;stroke-linejoin:round;stroke-opacity:1"
       d="m 111.78572,130.16184 -7.76454,5.97272 c 0,0 6.3709,16.92272 4.38,25.28454 -1.99091,8.36182 -7.36637,16.92274 -7.36637,16.92274 0,0 9.35727,-3.98182 12.54273,-12.14454 2.24488,-5.75252 1.59273,-14.33455 0.39818,-21.70091 -1.19454,-7.36637 -2.19,-14.33455 -2.19,-14.33455 z"
       id="path1357"
       sodipodi:nodetypes="ccscssc"
       inkscape:label="odsjaj" />
    <path
       style="opacity:0.312715;fill:url(#linearGradient1363);fill-opacity:1;stroke:none;stroke-width:0.705556;stroke-linecap:round;stroke-linejoin:round;stroke-opacity:1"
       d="m 108.10255,145.98957 -16.524549,1.29409 c 0,0 11.248639,13.43863 9.257729,21.80045 -1.990916,8.36182 -10.750917,18.51546 -10.750917,18.51546 0,0 15.486747,-6.91051 19.013187,-14.93182 4.72397,-7.80726 2.8101,-18.51637 -0.99545,-26.67818 z"
       id="path1361"
       sodipodi:nodetypes="ccsccc"
       inkscape:label="odsjaj" />
    <path
       style="opacity:0.82474227;fill:url(#linearGradient1519);fill-opacity:1;stroke:none;stroke-width:0.706;stroke-linecap:round;stroke-linejoin:round;stroke-opacity:1;stroke-dasharray:none;filter:url(#filter1531)"
       d="m 78.839985,194.46818 c 0,0 4.778181,3.18547 4.18091,27.47455 -0.510897,20.77656 -4.38,21.30272 -4.38,21.30272 l 14.135451,-0.19909 c 0,0 -2.588181,-44.79544 -0.199088,-48.77726 2.389089,-3.98182 -5.176366,2.98636 -5.176366,2.98636 z"
       id="path1511"
       sodipodi:nodetypes="csccscc" />
    <ellipse
       style="opacity:0.66323024;fill:#ffffff;fill-opacity:0.585271;stroke:none;stroke-width:0.706001;stroke-linecap:round;stroke-linejoin:round;stroke-dasharray:none;stroke-opacity:1;filter:url(#filter1593)"
       id="path1587"
       cx="77.44635"
       cy="148.57774"
       rx="18.31636"
       ry="17.221361"
       transform="matrix(1.209007,0,0,1.100614,-17.779558,-17.338098)" />
    <path
       style="opacity:0.63917526;fill:url(#radialGradient1661);fill-opacity:1;stroke:none;stroke-width:0.706001;stroke-linecap:round;stroke-linejoin:round;stroke-dasharray:none;stroke-opacity:1;filter:url(#filter1663)"
       d="m 79.039076,244.04182 -25.483632,7.56545 c 0,0 -1.791816,5.57454 22.298178,5.17636 24.089998,-0.39818 33.045018,0.46725 39.419998,-3.78273 l 2.38909,-1.59272 -27.474545,-7.96364 z"
       id="path1651"
       sodipodi:nodetypes="ccssccc" />
  </g>
</svg>
