<?xml version="1.0" encoding="UTF-8" standalone="no"?>
<!-- Created with Inkscape (http://www.inkscape.org/) -->

<svg
   width="250mm"
   height="300mm"
   viewBox="0 0 250 300"
   version="1.1"
   id="svg5"
   inkscape:version="1.2.2 (732a01da63, 2022-12-09)"
   sodipodi:docname="vježba2_2.svg"
   xmlns:inkscape="http://www.inkscape.org/namespaces/inkscape"
   xmlns:sodipodi="http://sodipodi.sourceforge.net/DTD/sodipodi-0.dtd"
   xmlns="http://www.w3.org/2000/svg"
   xmlns:svg="http://www.w3.org/2000/svg">
  <sodipodi:namedview
     id="namedview7"
     pagecolor="#ffffff"
     bordercolor="#000000"
     borderopacity="0.25"
     inkscape:showpageshadow="2"
     inkscape:pageopacity="0.0"
     inkscape:pagecheckerboard="0"
     inkscape:deskcolor="#d1d1d1"
     inkscape:document-units="mm"
     showgrid="true"
     inkscape:zoom="0.57638187"
     inkscape:cx="660.15262"
     inkscape:cy="484.92157"
     inkscape:window-width="1600"
     inkscape:window-height="822"
     inkscape:window-x="-8"
     inkscape:window-y="-8"
     inkscape:window-maximized="1"
     inkscape:current-layer="layer1">
    <inkscape:grid
       type="xygrid"
       id="grid59"
       units="mm"
       spacingx="0.99999999"
       spacingy="0.99999999"
       empspacing="10" />
  </sodipodi:namedview>
  <defs
     id="defs2">
    <clipPath
       clipPathUnits="userSpaceOnUse"
       id="clipPath2066">
      <g
         aria-label="dm"
         transform="scale(1.0193246,0.98104177)"
         id="g2070"
         style="font-size:59.1877px;font-family:'Showcard Gothic';-inkscape-font-specification:'Showcard Gothic';fill:none;fill-opacity:0.5;stroke:#000000;stroke-width:1.77591;stroke-opacity:0.5">
        <path
           id="path2068"
           d="m 144.53672,92.894047 q -0.40461,6.069051 -1.18491,22.137583 -0.40461,9.88389 -0.60691,22.25319 h -10.46189 l -0.289,-13.61201 -10.20178,14.68132 -11.011,-14.56572 -0.289,13.49641 h -10.40409 q -0.202299,-6.61816 -0.780304,-22.36879 -0.404604,-9.07467 -1.473913,-22.021983 h 16.559837 q 0.86701,2.109718 2.97673,6.820457 1.61841,3.352426 4.42174,7.918666 1.24271,-1.96522 4.56623,-8.120967 1.18491,-2.28312 3.03453,-6.618156 z M 95.637504,115.43624 q 0,10.43298 -6.473655,16.41533 -6.675956,6.21356 -18.814058,6.21356 -7.803066,0 -12.051402,-0.78031 l -0.780306,-21.47288 q -0.375704,-8.26547 -1.358312,-22.802292 6.271353,-0.895908 13.09181,-0.895908 12.167003,0 19.045261,5.664448 7.340662,6.069052 7.340662,17.658052 z m -11.8491,3.55473 q 0,-4.24834 -2.745523,-6.27136 -2.28312,-1.67621 -5.83785,-1.53171 l -0.404603,18.12045 q 3.699231,-0.2312 6.040151,-2.39872 2.947825,-2.68772 2.947825,-7.91866 z" />
      </g>
    </clipPath>
    <clipPath
       clipPathUnits="userSpaceOnUse"
       id="clipPath2072">
      <g
         aria-label="dm"
         transform="scale(1.0193246,0.98104177)"
         id="g2076"
         style="font-size:59.1877px;font-family:'Showcard Gothic';-inkscape-font-specification:'Showcard Gothic';fill:none;fill-opacity:0.5;stroke:#000000;stroke-width:1.77591;stroke-opacity:0.5">
        <path
           id="path2074"
           d="m 144.53672,92.894047 q -0.40461,6.069051 -1.18491,22.137583 -0.40461,9.88389 -0.60691,22.25319 h -10.46189 l -0.289,-13.61201 -10.20178,14.68132 -11.011,-14.56572 -0.289,13.49641 h -10.40409 q -0.202299,-6.61816 -0.780304,-22.36879 -0.404604,-9.07467 -1.473913,-22.021983 h 16.559837 q 0.86701,2.109718 2.97673,6.820457 1.61841,3.352426 4.42174,7.918666 1.24271,-1.96522 4.56623,-8.120967 1.18491,-2.28312 3.03453,-6.618156 z M 95.637504,115.43624 q 0,10.43298 -6.473655,16.41533 -6.675956,6.21356 -18.814058,6.21356 -7.803066,0 -12.051402,-0.78031 l -0.780306,-21.47288 q -0.375704,-8.26547 -1.358312,-22.802292 6.271353,-0.895908 13.09181,-0.895908 12.167003,0 19.045261,5.664448 7.340662,6.069052 7.340662,17.658052 z m -11.8491,3.55473 q 0,-4.24834 -2.745523,-6.27136 -2.28312,-1.67621 -5.83785,-1.53171 l -0.404603,18.12045 q 3.699231,-0.2312 6.040151,-2.39872 2.947825,-2.68772 2.947825,-7.91866 z" />
      </g>
    </clipPath>
    <clipPath
       clipPathUnits="userSpaceOnUse"
       id="clipPath2078">
      <g
         aria-label="dm"
         transform="scale(1.0193246,0.98104177)"
         id="g2082"
         style="font-size:59.1877px;font-family:'Showcard Gothic';-inkscape-font-specification:'Showcard Gothic';fill:none;fill-opacity:0.5;stroke:#000000;stroke-width:1.77591;stroke-opacity:0.5">
        <path
           id="path2080"
           d="m 144.53672,92.894047 q -0.40461,6.069051 -1.18491,22.137583 -0.40461,9.88389 -0.60691,22.25319 h -10.46189 l -0.289,-13.61201 -10.20178,14.68132 -11.011,-14.56572 -0.289,13.49641 h -10.40409 q -0.202299,-6.61816 -0.780304,-22.36879 -0.404604,-9.07467 -1.473913,-22.021983 h 16.559837 q 0.86701,2.109718 2.97673,6.820457 1.61841,3.352426 4.42174,7.918666 1.24271,-1.96522 4.56623,-8.120967 1.18491,-2.28312 3.03453,-6.618156 z M 95.637504,115.43624 q 0,10.43298 -6.473655,16.41533 -6.675956,6.21356 -18.814058,6.21356 -7.803066,0 -12.051402,-0.78031 l -0.780306,-21.47288 q -0.375704,-8.26547 -1.358312,-22.802292 6.271353,-0.895908 13.09181,-0.895908 12.167003,0 19.045261,5.664448 7.340662,6.069052 7.340662,17.658052 z m -11.8491,3.55473 q 0,-4.24834 -2.745523,-6.27136 -2.28312,-1.67621 -5.83785,-1.53171 l -0.404603,18.12045 q 3.699231,-0.2312 6.040151,-2.39872 2.947825,-2.68772 2.947825,-7.91866 z" />
      </g>
    </clipPath>
    <clipPath
       clipPathUnits="userSpaceOnUse"
       id="clipPath2352">
      <g
         id="g2360"
         style="display:inline"
         transform="matrix(0.92780758,0,0,0.97916265,2.0343175,5.2538355)">
        <g
           aria-label="La
"
           id="g2358"
           style="font-size:42.3333px;font-family:LauraKrtanjek;-inkscape-font-specification:LauraKrtanjek;display:inline;fill:none;stroke:#f703ff;stroke-width:2.82223;stroke-opacity:0.873737">
          <path
             d="m 67.298006,215.91927 q 0.04233,2.032 0.04233,5.334 0.04233,3.25966 0.127,10.24466 0.08467,6.98499 0.127,11.59932 0.08467,4.61433 0.08467,4.572 0,-0.0423 12.826991,0.0423 12.82699,0.0847 12.82699,-0.0423 l 0.550333,-0.0847 q 0.550333,-0.0423 1.354666,-0.254 0.804332,-0.254 1.269999,-0.67733 0.677333,-0.635 0.634999,-3.429 -0.04233,-1.90499 -1.015999,-2.66699 -0.423333,-0.33867 -1.185332,-0.59267 -0.719666,-0.254 -1.227666,-0.33867 l -0.508,-0.0847 -17.779986,-0.254 -0.508,-23.36799 z"
             style="stroke-width:2.82222"
             id="path2354" />
          <path
             d="m 118.69063,241.14992 -2.28599,-2.286 -2.45534,2.37067 2.45534,1.86266 z m -11.42999,-8.38199 q 0,-0.33867 0.0847,-0.635 0.0847,-0.29633 0.127,-0.46567 0.0423,-0.21166 0.21167,-0.508 0.21166,-0.33866 0.29633,-0.42333 0.0847,-0.127 0.33866,-0.508 0.29634,-0.42333 0.381,-0.508 0.0847,-0.0847 0.33867,-0.42333 0.254,-0.381 0.29633,-0.46567 0.0847,-0.127 0.29634,-0.381 0.21166,-0.29633 0.29633,-0.381 0.127,-0.127 0.33867,-0.33866 0.21166,-0.254 0.33866,-0.381 0.16934,-0.127 0.381,-0.254 0.254,-0.16934 0.508,-0.33867 0.254,-0.127 0.46567,-0.21167 0.21167,-0.127 0.46567,-0.16933 0.29633,-0.0847 0.42333,-0.127 0.127,-0.0423 0.46566,-0.0423 0.381,-0.0423 0.46567,-0.0423 0.0847,0 0.508,0 0.46567,0 0.508,0 1.48167,0 3.47133,0.508 1.82033,0.42334 2.62467,1.016 0.76199,0.59267 1.60866,2.11667 0.67733,1.22766 1.10067,2.87866 0.67733,2.83633 0.93133,5.588 0.0423,0.33866 0.127,1.143 0.127,0.762 0.127,1.143 0.0423,0.33866 -0.0423,0.93133 -0.0423,0.59266 -0.21167,1.18533 -0.59267,1.86267 -2.37067,3.302 -0.33866,0.254 -0.76199,0.42333 -0.381,0.127 -0.55034,0.16933 -0.16933,0.0423 -0.80433,0.127 -0.635,0.0423 -0.762,0.0423 -1.98967,0.254 -4.23333,0.0847 -0.42333,-0.0423 -1.143,-0.0423 -0.67733,0 -1.05833,0 -0.381,-0.0423 -0.93133,-0.16933 -0.508,-0.16934 -1.016,-0.46567 -0.254,-0.16933 -0.42334,-0.33866 -0.16933,-0.16934 -0.29633,-0.46567 -0.127,-0.29633 -0.16933,-0.42333 -0.0423,-0.16934 -0.127,-0.635 -0.0423,-0.46567 -0.0847,-0.59267 -0.33867,-1.86267 0,-2.96333 0.0423,-0.0847 0.127,-0.42333 0.127,-0.381 0.127,-0.42334 0.0423,-0.0847 0.127,-0.381 0.127,-0.33866 0.16933,-0.42333 0.0423,-0.0847 0.127,-0.33867 0.127,-0.254 0.16934,-0.33866 0.0847,-0.127 0.21166,-0.33867 0.127,-0.21167 0.254,-0.33867 0.127,-0.127 0.29634,-0.29633 0.16933,-0.16933 0.33866,-0.33866 1.48167,-1.22767 2.87867,-1.18534 1.35466,0.0423 2.70933,0.42334 0.16933,0.0423 1.05833,0.254 0.889,0.16933 1.143,0.254 l 0.16933,-2.70934 q -0.29633,-0.67733 -1.524,-2.28599 -0.46566,-0.59267 -1.60866,-0.93134 -1.05833,-0.29633 -2.45533,-0.16933 -0.71967,0.0847 -2.286,1.778 -0.21167,0.254 -0.381,0.889 -0.16933,0.59266 -0.55033,0.80433 -1.22767,0.762 -2.37067,0.33867 -1.35466,-0.508 -1.27,-1.778 z"
             style="stroke-width:2.82222"
             id="path2356" />
        </g>
      </g>
    </clipPath>
    <clipPath
       clipPathUnits="userSpaceOnUse"
       id="clipPath2362">
      <g
         id="g2370"
         style="display:inline">
        <g
           aria-label="La
"
           id="g2368"
           style="font-size:42.3333px;font-family:LauraKrtanjek;-inkscape-font-specification:LauraKrtanjek;display:inline;fill:none;stroke:#f703ff;stroke-width:2.82223;stroke-opacity:0.873737">
          <path
             d="m 67.298006,215.91927 q 0.04233,2.032 0.04233,5.334 0.04233,3.25966 0.127,10.24466 0.08467,6.98499 0.127,11.59932 0.08467,4.61433 0.08467,4.572 0,-0.0423 12.826991,0.0423 12.82699,0.0847 12.82699,-0.0423 l 0.550333,-0.0847 q 0.550333,-0.0423 1.354666,-0.254 0.804332,-0.254 1.269999,-0.67733 0.677333,-0.635 0.634999,-3.429 -0.04233,-1.90499 -1.015999,-2.66699 -0.423333,-0.33867 -1.185332,-0.59267 -0.719666,-0.254 -1.227666,-0.33867 l -0.508,-0.0847 -17.779986,-0.254 -0.508,-23.36799 z"
             style="stroke-width:2.82222"
             id="path2364" />
          <path
             d="m 118.69063,241.14992 -2.28599,-2.286 -2.45534,2.37067 2.45534,1.86266 z m -11.42999,-8.38199 q 0,-0.33867 0.0847,-0.635 0.0847,-0.29633 0.127,-0.46567 0.0423,-0.21166 0.21167,-0.508 0.21166,-0.33866 0.29633,-0.42333 0.0847,-0.127 0.33866,-0.508 0.29634,-0.42333 0.381,-0.508 0.0847,-0.0847 0.33867,-0.42333 0.254,-0.381 0.29633,-0.46567 0.0847,-0.127 0.29634,-0.381 0.21166,-0.29633 0.29633,-0.381 0.127,-0.127 0.33867,-0.33866 0.21166,-0.254 0.33866,-0.381 0.16934,-0.127 0.381,-0.254 0.254,-0.16934 0.508,-0.33867 0.254,-0.127 0.46567,-0.21167 0.21167,-0.127 0.46567,-0.16933 0.29633,-0.0847 0.42333,-0.127 0.127,-0.0423 0.46566,-0.0423 0.381,-0.0423 0.46567,-0.0423 0.0847,0 0.508,0 0.46567,0 0.508,0 1.48167,0 3.47133,0.508 1.82033,0.42334 2.62467,1.016 0.76199,0.59267 1.60866,2.11667 0.67733,1.22766 1.10067,2.87866 0.67733,2.83633 0.93133,5.588 0.0423,0.33866 0.127,1.143 0.127,0.762 0.127,1.143 0.0423,0.33866 -0.0423,0.93133 -0.0423,0.59266 -0.21167,1.18533 -0.59267,1.86267 -2.37067,3.302 -0.33866,0.254 -0.76199,0.42333 -0.381,0.127 -0.55034,0.16933 -0.16933,0.0423 -0.80433,0.127 -0.635,0.0423 -0.762,0.0423 -1.98967,0.254 -4.23333,0.0847 -0.42333,-0.0423 -1.143,-0.0423 -0.67733,0 -1.05833,0 -0.381,-0.0423 -0.93133,-0.16933 -0.508,-0.16934 -1.016,-0.46567 -0.254,-0.16933 -0.42334,-0.33866 -0.16933,-0.16934 -0.29633,-0.46567 -0.127,-0.29633 -0.16933,-0.42333 -0.0423,-0.16934 -0.127,-0.635 -0.0423,-0.46567 -0.0847,-0.59267 -0.33867,-1.86267 0,-2.96333 0.0423,-0.0847 0.127,-0.42333 0.127,-0.381 0.127,-0.42334 0.0423,-0.0847 0.127,-0.381 0.127,-0.33866 0.16933,-0.42333 0.0423,-0.0847 0.127,-0.33867 0.127,-0.254 0.16934,-0.33866 0.0847,-0.127 0.21166,-0.33867 0.127,-0.21167 0.254,-0.33867 0.127,-0.127 0.29634,-0.29633 0.16933,-0.16933 0.33866,-0.33866 1.48167,-1.22767 2.87867,-1.18534 1.35466,0.0423 2.70933,0.42334 0.16933,0.0423 1.05833,0.254 0.889,0.16933 1.143,0.254 l 0.16933,-2.70934 q -0.29633,-0.67733 -1.524,-2.28599 -0.46566,-0.59267 -1.60866,-0.93134 -1.05833,-0.29633 -2.45533,-0.16933 -0.71967,0.0847 -2.286,1.778 -0.21167,0.254 -0.381,0.889 -0.16933,0.59266 -0.55033,0.80433 -1.22767,0.762 -2.37067,0.33867 -1.35466,-0.508 -1.27,-1.778 z"
             style="stroke-width:2.82222"
             id="path2366" />
        </g>
      </g>
    </clipPath>
    <clipPath
       clipPathUnits="userSpaceOnUse"
       id="clipPath2372">
      <g
         id="g2380"
         style="display:inline">
        <g
           aria-label="La
"
           id="g2378"
           style="font-size:42.3333px;font-family:LauraKrtanjek;-inkscape-font-specification:LauraKrtanjek;display:inline;fill:none;stroke:#f703ff;stroke-width:2.82223;stroke-opacity:0.873737">
          <path
             d="m 67.298006,215.91927 q 0.04233,2.032 0.04233,5.334 0.04233,3.25966 0.127,10.24466 0.08467,6.98499 0.127,11.59932 0.08467,4.61433 0.08467,4.572 0,-0.0423 12.826991,0.0423 12.82699,0.0847 12.82699,-0.0423 l 0.550333,-0.0847 q 0.550333,-0.0423 1.354666,-0.254 0.804332,-0.254 1.269999,-0.67733 0.677333,-0.635 0.634999,-3.429 -0.04233,-1.90499 -1.015999,-2.66699 -0.423333,-0.33867 -1.185332,-0.59267 -0.719666,-0.254 -1.227666,-0.33867 l -0.508,-0.0847 -17.779986,-0.254 -0.508,-23.36799 z"
             style="stroke-width:2.82222"
             id="path2374" />
          <path
             d="m 118.69063,241.14992 -2.28599,-2.286 -2.45534,2.37067 2.45534,1.86266 z m -11.42999,-8.38199 q 0,-0.33867 0.0847,-0.635 0.0847,-0.29633 0.127,-0.46567 0.0423,-0.21166 0.21167,-0.508 0.21166,-0.33866 0.29633,-0.42333 0.0847,-0.127 0.33866,-0.508 0.29634,-0.42333 0.381,-0.508 0.0847,-0.0847 0.33867,-0.42333 0.254,-0.381 0.29633,-0.46567 0.0847,-0.127 0.29634,-0.381 0.21166,-0.29633 0.29633,-0.381 0.127,-0.127 0.33867,-0.33866 0.21166,-0.254 0.33866,-0.381 0.16934,-0.127 0.381,-0.254 0.254,-0.16934 0.508,-0.33867 0.254,-0.127 0.46567,-0.21167 0.21167,-0.127 0.46567,-0.16933 0.29633,-0.0847 0.42333,-0.127 0.127,-0.0423 0.46566,-0.0423 0.381,-0.0423 0.46567,-0.0423 0.0847,0 0.508,0 0.46567,0 0.508,0 1.48167,0 3.47133,0.508 1.82033,0.42334 2.62467,1.016 0.76199,0.59267 1.60866,2.11667 0.67733,1.22766 1.10067,2.87866 0.67733,2.83633 0.93133,5.588 0.0423,0.33866 0.127,1.143 0.127,0.762 0.127,1.143 0.0423,0.33866 -0.0423,0.93133 -0.0423,0.59266 -0.21167,1.18533 -0.59267,1.86267 -2.37067,3.302 -0.33866,0.254 -0.76199,0.42333 -0.381,0.127 -0.55034,0.16933 -0.16933,0.0423 -0.80433,0.127 -0.635,0.0423 -0.762,0.0423 -1.98967,0.254 -4.23333,0.0847 -0.42333,-0.0423 -1.143,-0.0423 -0.67733,0 -1.05833,0 -0.381,-0.0423 -0.93133,-0.16933 -0.508,-0.16934 -1.016,-0.46567 -0.254,-0.16933 -0.42334,-0.33866 -0.16933,-0.16934 -0.29633,-0.46567 -0.127,-0.29633 -0.16933,-0.42333 -0.0423,-0.16934 -0.127,-0.635 -0.0423,-0.46567 -0.0847,-0.59267 -0.33867,-1.86267 0,-2.96333 0.0423,-0.0847 0.127,-0.42333 0.127,-0.381 0.127,-0.42334 0.0423,-0.0847 0.127,-0.381 0.127,-0.33866 0.16933,-0.42333 0.0423,-0.0847 0.127,-0.33867 0.127,-0.254 0.16934,-0.33866 0.0847,-0.127 0.21166,-0.33867 0.127,-0.21167 0.254,-0.33867 0.127,-0.127 0.29634,-0.29633 0.16933,-0.16933 0.33866,-0.33866 1.48167,-1.22767 2.87867,-1.18534 1.35466,0.0423 2.70933,0.42334 0.16933,0.0423 1.05833,0.254 0.889,0.16933 1.143,0.254 l 0.16933,-2.70934 q -0.29633,-0.67733 -1.524,-2.28599 -0.46566,-0.59267 -1.60866,-0.93134 -1.05833,-0.29633 -2.45533,-0.16933 -0.71967,0.0847 -2.286,1.778 -0.21167,0.254 -0.381,0.889 -0.16933,0.59266 -0.55033,0.80433 -1.22767,0.762 -2.37067,0.33867 -1.35466,-0.508 -1.27,-1.778 z"
             style="stroke-width:2.82222"
             id="path2376" />
        </g>
      </g>
    </clipPath>
  </defs>
  <g
     inkscape:label="Sloj 1"
     inkscape:groupmode="layer"
     id="layer1">
    <path
       style="display:inline;fill:none;fill-opacity:0;fill-rule:nonzero;stroke:#000000;stroke-width:0.705556;stroke-dasharray:none;stroke-opacity:0.8"
       d="m 150.10665,149.89335 c 34.88717,-41.77279 -44.98609,-58.298297 0,-80.3323"
       id="path1058"
       inkscape:label="krivulja2"
       clip-path="url(#clipPath2078)" />
    <path
       style="display:inline;fill:none;fill-opacity:0;fill-rule:nonzero;stroke:#000000;stroke-width:2.11667;stroke-dasharray:none;stroke-opacity:0.5"
       d="m 69.3153,149.89335 c -46.363214,-46.82225 0,-80.3323 0,-80.3323"
       id="path1060"
       inkscape:label="krivulja1"
       clip-path="url(#clipPath2072)" />
    <g
       id="g1902"
       style="display:inline"
       inkscape:label="blend"
       clip-path="url(#clipPath2066)">
      <path
         d="m 150.107,149.893 c 34.887,-41.772 -44.986,-58.2979 0,-80.332"
         style="fill:none;fill-opacity:0;stroke:#000000;stroke-width:0.705556px;stroke-opacity:0.8"
         id="path1818" />
      <path
         d="m 148.136,149.893 c 32.906,-41.896 -43.889,-58.8354 0,-80.332"
         style="fill:none;fill-opacity:0;stroke:#000000;stroke-width:0.739973px;stroke-opacity:0.792683"
         id="path1820" />
      <path
         d="m 146.166,149.893 c 30.923,-42.019 -42.792,-59.3728 0,-80.332"
         style="fill:none;fill-opacity:0;stroke:#000000;stroke-width:0.774391px;stroke-opacity:0.785366"
         id="path1822" />
      <path
         d="m 144.195,149.893 c 28.942,-42.142 -41.694,-59.9102 0,-80.332"
         style="fill:none;fill-opacity:0;stroke:#000000;stroke-width:0.808808px;stroke-opacity:0.778049"
         id="path1824" />
      <path
         d="m 142.225,149.893 c 26.96,-42.265 -40.598,-60.4476 0,-80.332"
         style="fill:none;fill-opacity:0;stroke:#000000;stroke-width:0.843226px;stroke-opacity:0.770732"
         id="path1826" />
      <path
         d="m 140.254,149.893 c 24.979,-42.388 -39.5,-60.985 0,-80.332"
         style="fill:none;fill-opacity:0;stroke:#000000;stroke-width:0.877643px;stroke-opacity:0.763415"
         id="path1828" />
      <path
         d="m 138.284,149.893 c 22.996,-42.511 -38.4032,-61.5224 0,-80.332"
         style="fill:none;fill-opacity:0;stroke:#000000;stroke-width:0.91206px;stroke-opacity:0.756098"
         id="path1830" />
      <path
         d="m 136.313,149.893 c 21.015,-42.635 -37.3055,-62.0598 0,-80.332"
         style="fill:none;fill-opacity:0;stroke:#000000;stroke-width:0.946478px;stroke-opacity:0.74878"
         id="path1832" />
      <path
         d="m 134.342,149.893 c 19.034,-42.758 -36.2078,-62.5973 0,-80.332"
         style="fill:none;fill-opacity:0;stroke:#000000;stroke-width:0.980895px;stroke-opacity:0.741463"
         id="path1834" />
      <path
         d="m 132.372,149.893 c 17.052,-42.881 -35.1111,-63.1347 0,-80.332"
         style="fill:none;fill-opacity:0;stroke:#000000;stroke-width:1.01531px;stroke-opacity:0.734146"
         id="path1836" />
      <path
         d="m 130.401,149.893 c 15.07,-43.004 -34.0134,-63.6721 0,-80.332"
         style="fill:none;fill-opacity:0;stroke:#000000;stroke-width:1.04973px;stroke-opacity:0.726829"
         id="path1838" />
      <path
         d="m 128.431,149.893 c 13.088,-43.127 -32.9167,-64.2095 0,-80.332"
         style="fill:none;fill-opacity:0;stroke:#000000;stroke-width:1.08415px;stroke-opacity:0.719512"
         id="path1840" />
      <path
         d="m 126.46,149.893 c 11.107,-43.25 -31.819,-64.7469 0,-80.332"
         style="fill:none;fill-opacity:0;stroke:#000000;stroke-width:1.11856px;stroke-opacity:0.712195"
         id="path1842" />
      <path
         d="m 124.49,149.893 c 9.125,-43.373 -30.7223,-65.2843 0,-80.332"
         style="fill:none;fill-opacity:0;stroke:#000000;stroke-width:1.15298px;stroke-opacity:0.704878"
         id="path1844" />
      <path
         d="m 122.519,149.893 c 7.143,-43.497 -29.6246,-65.8218 0,-80.332"
         style="fill:none;fill-opacity:0;stroke:#000000;stroke-width:1.1874px;stroke-opacity:0.697561"
         id="path1846" />
      <path
         d="m 120.549,149.893 c 5.161,-43.62 -28.5279,-66.3592 0,-80.332"
         style="fill:none;fill-opacity:0;stroke:#000000;stroke-width:1.22182px;stroke-opacity:0.690244"
         id="path1848" />
      <path
         d="m 118.578,149.893 c 3.18,-43.743 -27.4302,-66.8966 0,-80.332"
         style="fill:none;fill-opacity:0;stroke:#000000;stroke-width:1.25623px;stroke-opacity:0.682927"
         id="path1850" />
      <path
         d="m 116.608,149.893 c 1.198,-43.866 -26.3335,-67.434 0,-80.332"
         style="fill:none;fill-opacity:0;stroke:#000000;stroke-width:1.29065px;stroke-opacity:0.67561"
         id="path1852" />
      <path
         d="m 114.637,149.893 c -0.783,-43.989 -25.2358,-67.9714 0,-80.332"
         style="fill:none;fill-opacity:0;stroke:#000000;stroke-width:1.32507px;stroke-opacity:0.668293"
         id="path1854" />
      <path
         d="m 112.667,149.893 c -2.766,-44.112 -24.1391,-68.5088 0,-80.332"
         style="fill:none;fill-opacity:0;stroke:#000000;stroke-width:1.35949px;stroke-opacity:0.660976"
         id="path1856" />
      <path
         d="m 110.696,149.893 c -4.747,-44.236 -23.0414,-69.0462 0,-80.332"
         style="fill:none;fill-opacity:0;stroke:#000000;stroke-width:1.3939px;stroke-opacity:0.653659"
         id="path1858" />
      <path
         d="m 108.726,149.893 c -6.729,-44.359 -21.9447,-69.5837 0,-80.332"
         style="fill:none;fill-opacity:0;stroke:#000000;stroke-width:1.42832px;stroke-opacity:0.646341"
         id="path1860" />
      <path
         d="m 106.755,149.893 c -8.7104,-44.482 -20.847,-70.1211 0,-80.332"
         style="fill:none;fill-opacity:0;stroke:#000000;stroke-width:1.46274px;stroke-opacity:0.639024"
         id="path1862" />
      <path
         d="m 104.785,149.893 c -10.6926,-44.605 -19.7503,-70.6585 0,-80.332"
         style="fill:none;fill-opacity:0;stroke:#000000;stroke-width:1.49716px;stroke-opacity:0.631707"
         id="path1864" />
      <path
         d="m 102.814,149.893 c -12.6739,-44.728 -18.6526,-71.1959 0,-80.332"
         style="fill:none;fill-opacity:0;stroke:#000000;stroke-width:1.53157px;stroke-opacity:0.62439"
         id="path1866" />
      <path
         d="m 100.844,149.893 c -14.6561,-44.851 -17.5559,-71.7333 0,-80.332"
         style="fill:none;fill-opacity:0;stroke:#000000;stroke-width:1.56599px;stroke-opacity:0.617073"
         id="path1868" />
      <path
         d="m 98.8731,149.893 c -16.6375,-44.975 -16.4583,-72.2707 0,-80.332"
         style="fill:none;fill-opacity:0;stroke:#000000;stroke-width:1.60041px;stroke-opacity:0.609756"
         id="path1870" />
      <path
         d="m 96.9026,149.893 c -18.6192,-45.098 -15.3611,-72.8081 0,-80.332"
         style="fill:none;fill-opacity:0;stroke:#000000;stroke-width:1.63483px;stroke-opacity:0.602439"
         id="path1872" />
      <path
         d="m 94.9321,149.893 c -20.6009,-45.221 -14.2639,-73.3456 0,-80.332"
         style="fill:none;fill-opacity:0;stroke:#000000;stroke-width:1.66924px;stroke-opacity:0.595122"
         id="path1874" />
      <path
         d="m 92.9615,149.893 c -22.5826,-45.344 -13.1666,-73.883 0,-80.332"
         style="fill:none;fill-opacity:0;stroke:#000000;stroke-width:1.70366px;stroke-opacity:0.587805"
         id="path1876" />
      <path
         d="m 90.991,149.893 c -24.5643,-45.467 -12.0694,-74.4204 0,-80.332"
         style="fill:none;fill-opacity:0;stroke:#000000;stroke-width:1.73808px;stroke-opacity:0.580488"
         id="path1878" />
      <path
         d="m 89.0205,149.893 c -26.546,-45.59 -10.9722,-74.9578 0,-80.332"
         style="fill:none;fill-opacity:0;stroke:#000000;stroke-width:1.7725px;stroke-opacity:0.573171"
         id="path1880" />
      <path
         d="M 87.05,149.893 C 58.5222,104.18 77.175,74.3978 87.05,69.561"
         style="fill:none;fill-opacity:0;stroke:#000000;stroke-width:1.80691px;stroke-opacity:0.565854"
         id="path1882" />
      <path
         d="m 85.0795,149.893 c -30.5095,-45.837 -8.7778,-76.0326 0,-80.332"
         style="fill:none;fill-opacity:0;stroke:#000000;stroke-width:1.84133px;stroke-opacity:0.558537"
         id="path1884" />
      <path
         d="m 83.1089,149.893 c -32.4912,-45.96 -7.6805,-76.57 0,-80.332"
         style="fill:none;fill-opacity:0;stroke:#000000;stroke-width:1.87575px;stroke-opacity:0.55122"
         id="path1886" />
      <path
         d="m 81.1384,149.893 c -34.4729,-46.083 -6.5833,-77.1075 0,-80.332"
         style="fill:none;fill-opacity:0;stroke:#000000;stroke-width:1.91017px;stroke-opacity:0.543902"
         id="path1888" />
      <path
         d="m 79.1679,149.893 c -36.4546,-46.206 -5.4861,-77.6449 0,-80.332"
         style="fill:none;fill-opacity:0;stroke:#000000;stroke-width:1.94458px;stroke-opacity:0.536585"
         id="path1890" />
      <path
         d="m 77.1974,149.893 c -38.4364,-46.329 -4.3889,-78.1823 0,-80.332"
         style="fill:none;fill-opacity:0;stroke:#000000;stroke-width:1.979px;stroke-opacity:0.529268"
         id="path1892" />
      <path
         d="m 75.2269,149.893 c -40.4181,-46.452 -3.2917,-78.7197 0,-80.332"
         style="fill:none;fill-opacity:0;stroke:#000000;stroke-width:2.01342px;stroke-opacity:0.521951"
         id="path1894" />
      <path
         d="m 73.2563,149.893 c -42.3997,-46.576 -2.1944,-79.2571 0,-80.332"
         style="fill:none;fill-opacity:0;stroke:#000000;stroke-width:2.04784px;stroke-opacity:0.514634"
         id="path1896" />
      <path
         d="m 71.2858,149.893 c -44.3815,-46.699 -1.0972,-79.7945 0,-80.332"
         style="fill:none;fill-opacity:0;stroke:#000000;stroke-width:2.08225px;stroke-opacity:0.507317"
         id="path1898" />
      <path
         d="m 69.3153,149.893 c -46.3632,-46.822 0,-80.332 0,-80.332"
         style="fill:none;fill-opacity:0;stroke:#000000;stroke-width:2.11667px;stroke-opacity:0.5"
         id="path1900" />
    </g>
    <g
       aria-label="dm"
       transform="scale(1.0193246,0.98104176)"
       id="g2064"
       style="font-size:59.1877px;font-family:'Showcard Gothic';-inkscape-font-specification:'Showcard Gothic';fill:none;fill-opacity:0.5;stroke:#000000;stroke-width:1.77591;stroke-opacity:0.5"
       inkscape:label="tekst">
      <path
         id="path2062"
         d="m 144.53672,92.894047 q -0.40461,6.069051 -1.18491,22.137583 -0.40461,9.88389 -0.60691,22.25319 h -10.46189 l -0.289,-13.61201 -10.20178,14.68132 -11.011,-14.56572 -0.289,13.49641 h -10.40409 q -0.202299,-6.61816 -0.780304,-22.36879 -0.404604,-9.07467 -1.473913,-22.021983 h 16.559837 q 0.86701,2.109718 2.97673,6.820457 1.61841,3.352426 4.42174,7.918666 1.24271,-1.96522 4.56623,-8.120967 1.18491,-2.28312 3.03453,-6.618156 z M 95.637504,115.43624 q 0,10.43298 -6.473655,16.41533 -6.675956,6.21356 -18.814058,6.21356 -7.803066,0 -12.051402,-0.78031 l -0.780306,-21.47288 q -0.375704,-8.26547 -1.358312,-22.802292 6.271353,-0.895908 13.09181,-0.895908 12.167003,0 19.045261,5.664448 7.340662,6.069052 7.340662,17.658052 z m -11.8491,3.55473 q 0,-4.24834 -2.745523,-6.27136 -2.28312,-1.67621 -5.83785,-1.53171 l -0.404603,18.12045 q 3.699231,-0.2312 6.040151,-2.39872 2.947825,-2.68772 2.947825,-7.91866 z" />
    </g>
    <path
       style="display:inline;fill:none;fill-opacity:0;stroke:#32fd05;stroke-width:2.50565;stroke-dasharray:none;stroke-opacity:1"
       d="m 112.74701,249.49107 c 19.38605,-29.3645 -20.331713,-39.91736 -20.331713,-39.91736 0,0 -20.331711,-4.58821 19.386043,-19.72928"
       id="path1804"
       inkscape:label="krivulja4"
       clip-path="url(#clipPath2372)" />
    <path
       style="display:inline;fill:none;fill-opacity:0;stroke:#f703ff;stroke-width:2.86361;stroke-dasharray:none;stroke-opacity:0.873737"
       d="m 39.931112,249.49107 c 0,0 48.22871,-11.01168 20.331712,-59.64664"
       id="path1914"
       inkscape:label="krivulja3"
       clip-path="url(#clipPath2362)" />
    <g
       id="g2125"
       transform="matrix(1.0778097,0,0,1.0212808,-2.1926071,-5.3656413)"
       style="display:inline"
       clip-path="url(#clipPath2352)">
      <path
         d="m 110.629,249.505 c 18.821,-29.378 -19.7387,-39.936 -19.7387,-39.936 0,0 -19.7388,-4.591 18.8207,-19.739"
         style="fill:none;fill-opacity:0;stroke:#32fd05;stroke-width:2.46944px;stroke-opacity:1"
         id="path2040" />
      <path
         d="M 108.905,249.505 C 127.267,220.843 90.3098,210.387 90.3339,209.789 90.3415,209.601 71.0291,204.892 108.491,189.83"
         style="fill:none;fill-opacity:0;stroke:#36f60b;stroke-width:2.47805px;stroke-opacity:0.99692"
         id="path2042" />
      <path
         d="M 107.181,249.505 C 125.083,221.56 89.7292,211.205 89.7776,210.008 89.7927,209.634 70.9067,204.805 107.27,189.83"
         style="fill:none;fill-opacity:0;stroke:#3bf011;stroke-width:2.48665px;stroke-opacity:0.993841"
         id="path2044" />
      <path
         d="M 105.456,249.505 C 122.9,222.276 89.1487,212.023 89.2212,210.228 89.2439,209.666 70.7844,204.719 106.05,189.83"
         style="fill:none;fill-opacity:0;stroke:#40ea17;stroke-width:2.49526px;stroke-opacity:0.990761"
         id="path2046" />
      <path
         d="M 103.732,249.505 C 120.717,222.993 88.5682,212.842 88.6649,210.448 88.6951,209.698 70.662,204.633 104.829,189.83"
         style="fill:none;fill-opacity:0;stroke:#45e41d;stroke-width:2.50386px;stroke-opacity:0.987682"
         id="path2048" />
      <path
         d="M 102.008,249.505 C 118.534,223.71 87.9877,213.66 88.1085,210.668 88.1463,209.731 70.5396,204.546 103.609,189.83"
         style="fill:none;fill-opacity:0;stroke:#4ade23;stroke-width:2.51247px;stroke-opacity:0.984602"
         id="path2050" />
      <path
         d="M 100.284,249.505 C 116.35,224.426 87.4072,214.478 87.5521,210.888 87.5975,209.763 70.4172,204.46 102.389,189.83"
         style="fill:none;fill-opacity:0;stroke:#4ed829;stroke-width:2.52107px;stroke-opacity:0.981523"
         id="path2052" />
      <path
         d="M 98.5596,249.505 C 114.167,225.143 86.8267,215.296 86.9958,211.107 87.0487,209.796 70.2949,204.373 101.168,189.83"
         style="fill:none;fill-opacity:0;stroke:#53d22f;stroke-width:2.52967px;stroke-opacity:0.978443"
         id="path2054" />
      <path
         d="M 96.8354,249.505 C 111.984,225.859 86.2462,216.115 86.4394,211.327 86.5,209.828 70.1725,204.287 99.9479,189.83"
         style="fill:none;fill-opacity:0;stroke:#58cc35;stroke-width:2.53828px;stroke-opacity:0.975363"
         id="path2056" />
      <path
         d="M 95.1112,249.505 C 109.801,226.576 85.6657,216.933 85.8831,211.547 85.9512,209.86 70.0501,204.2 98.7276,189.83"
         style="fill:none;fill-opacity:0;stroke:#5dc63b;stroke-width:2.54688px;stroke-opacity:0.972284"
         id="path2058" />
      <path
         d="m 93.387,249.505 c 14.23,-22.213 -8.3018,-31.754 -8.0603,-37.738 0.0757,-1.874 -15.3989,-7.653 12.1805,-21.937"
         style="fill:none;fill-opacity:0;stroke:#62c041;stroke-width:2.55549px;stroke-opacity:0.969204"
         id="path2060" />
      <path
         d="m 91.6628,249.505 c 13.7712,-21.496 -7.1581,-30.936 -6.8924,-37.518 0.0832,-2.062 -14.965,-7.96 11.5164,-22.157"
         style="fill:none;fill-opacity:0;stroke:#66b948;stroke-width:2.56409px;stroke-opacity:0.966125"
         id="path2063" />
      <path
         d="m 89.9386,249.505 c 13.3124,-20.78 -6.0144,-30.117 -5.7246,-37.299 0.0908,-2.248 -14.531,-8.265 10.8524,-22.376"
         style="fill:none;fill-opacity:0;stroke:#6bb34e;stroke-width:2.5727px;stroke-opacity:0.963045"
         id="path2065" />
      <path
         d="M 88.2144,249.505 C 101.068,229.442 83.3437,220.206 83.6577,212.426 83.756,209.99 69.5607,203.855 93.846,189.83"
         style="fill:none;fill-opacity:0;stroke:#70ad54;stroke-width:2.5813px;stroke-opacity:0.959965"
         id="path2067" />
      <path
         d="m 86.4902,249.505 c 12.3941,-19.347 -3.727,-28.481 -3.3889,-36.859 0.1059,-2.624 -13.663,-8.878 9.5244,-22.816"
         style="fill:none;fill-opacity:0;stroke:#75a75a;stroke-width:2.58991px;stroke-opacity:0.956886"
         id="path2069" />
      <path
         d="m 84.766,249.505 c 11.9351,-18.63 -2.5833,-27.663 -2.221,-36.639 0.1134,-2.811 -13.2291,-9.184 8.8603,-23.036"
         style="fill:none;fill-opacity:0;stroke:#7aa160;stroke-width:2.59851px;stroke-opacity:0.953806"
         id="path2071" />
      <path
         d="m 83.0418,249.505 c 11.476,-17.913 -1.4396,-26.844 -1.0532,-36.419 0.121,-2.999 -12.7951,-9.491 8.1963,-23.256"
         style="fill:none;fill-opacity:0;stroke:#7e9b66;stroke-width:2.60711px;stroke-opacity:0.950727"
         id="path2073" />
      <path
         d="m 81.3176,249.505 c 11.017,-17.197 -0.296,-26.026 0.1147,-36.199 0.1286,-3.186 -12.3611,-9.797 7.5322,-23.476"
         style="fill:none;fill-opacity:0;stroke:#83956c;stroke-width:2.61572px;stroke-opacity:0.947647"
         id="path2075" />
      <path
         d="m 79.5934,249.505 c 10.5579,-16.48 0.8477,-25.208 1.2825,-35.98 0.1362,-3.373 -11.9271,-10.103 6.8682,-23.695"
         style="fill:none;fill-opacity:0;stroke:#888f72;stroke-width:2.62432px;stroke-opacity:0.944567"
         id="path2077" />
      <path
         d="m 77.8692,249.505 c 10.0989,-15.764 1.9914,-24.39 2.4504,-35.76 0.1437,-3.561 -11.4932,-10.409 6.2042,-23.915"
         style="fill:none;fill-opacity:0;stroke:#8d8978;stroke-width:2.63293px;stroke-opacity:0.941488"
         id="path2079" />
      <path
         d="m 76.1449,249.505 c 9.6399,-15.047 3.1352,-23.571 3.6183,-35.54 0.1513,-3.748 -11.0591,-10.716 5.5402,-24.135"
         style="fill:none;fill-opacity:0;stroke:#92837e;stroke-width:2.64153px;stroke-opacity:0.938408"
         id="path2081" />
      <path
         d="m 74.4207,249.505 c 9.1809,-14.331 4.2789,-22.753 4.7862,-35.32 0.1588,-3.936 -10.6252,-11.022 4.8761,-24.355"
         style="fill:none;fill-opacity:0;stroke:#967c85;stroke-width:2.65014px;stroke-opacity:0.935329"
         id="path2083" />
      <path
         d="m 72.6965,249.505 c 8.7218,-13.614 5.4226,-21.935 5.954,-35.1 0.1664,-4.123 -10.1912,-11.328 4.2121,-24.575"
         style="fill:none;fill-opacity:0;stroke:#9b768b;stroke-width:2.65874px;stroke-opacity:0.932249"
         id="path2085" />
      <path
         d="m 70.9723,249.505 c 8.2628,-12.898 6.5663,-21.117 7.1218,-34.881 0.174,-4.31 -9.7572,-11.634 3.5482,-24.794"
         style="fill:none;fill-opacity:0;stroke:#a07091;stroke-width:2.66734px;stroke-opacity:0.92917"
         id="path2087" />
      <path
         d="m 69.2481,249.505 c 7.8037,-12.181 7.71,-20.299 8.2897,-34.661 0.1815,-4.498 -9.3232,-11.94 2.8841,-25.014"
         style="fill:none;fill-opacity:0;stroke:#a56a97;stroke-width:2.67595px;stroke-opacity:0.92609"
         id="path2089" />
      <path
         d="m 67.5239,249.505 c 7.3447,-11.464 8.8537,-19.48 9.4575,-34.441 0.1891,-4.685 -8.8892,-12.247 2.2201,-25.234"
         style="fill:none;fill-opacity:0;stroke:#aa649d;stroke-width:2.68455px;stroke-opacity:0.92301"
         id="path2091" />
      <path
         d="m 65.7997,249.505 c 6.8856,-10.748 9.9974,-18.662 10.6254,-34.221 0.1967,-4.873 -8.4553,-12.553 1.556,-25.454"
         style="fill:none;fill-opacity:0;stroke:#ae5ea3;stroke-width:2.69316px;stroke-opacity:0.919931"
         id="path2093" />
      <path
         d="m 64.0755,249.505 c 6.4266,-10.031 11.1411,-17.844 11.7932,-34.001 0.2043,-5.06 -8.0212,-12.86 0.892,-25.674"
         style="fill:none;fill-opacity:0;stroke:#b358a9;stroke-width:2.70176px;stroke-opacity:0.916851"
         id="path2095" />
      <path
         d="m 62.3513,249.505 c 5.9675,-9.315 12.2848,-17.026 12.9611,-33.782 0.2118,-5.247 -7.5873,-13.165 0.228,-25.893"
         style="fill:none;fill-opacity:0;stroke:#b852af;stroke-width:2.71037px;stroke-opacity:0.913772"
         id="path2097" />
      <path
         d="m 60.6271,249.505 c 5.5085,-8.598 13.4285,-16.207 14.1289,-33.562 0.2194,-5.435 -7.1533,-13.472 -0.436,-26.113"
         style="fill:none;fill-opacity:0;stroke:#bd4cb5;stroke-width:2.71897px;stroke-opacity:0.910692"
         id="path2099" />
      <path
         d="m 58.9029,249.505 c 5.0495,-7.882 14.5722,-15.389 15.2968,-33.342 0.2269,-5.622 -6.7193,-13.778 -1.1001,-26.333"
         style="fill:none;fill-opacity:0;stroke:#c246bb;stroke-width:2.72757px;stroke-opacity:0.907612"
         id="path2101" />
      <path
         d="m 57.1787,249.505 c 4.5904,-7.165 15.7158,-14.571 16.4646,-33.122 0.2345,-5.81 -6.2853,-14.085 -1.7641,-26.553"
         style="fill:none;fill-opacity:0;stroke:#c63fc2;stroke-width:2.73618px;stroke-opacity:0.904533"
         id="path2103" />
      <path
         d="m 55.4545,249.505 c 4.1314,-6.449 16.8595,-13.753 17.6325,-32.902 0.242,-5.997 -5.8514,-14.391 -2.4282,-26.773"
         style="fill:none;fill-opacity:0;stroke:#cb39c8;stroke-width:2.74478px;stroke-opacity:0.901453"
         id="path2105" />
      <path
         d="m 53.7303,249.505 c 3.6723,-5.732 18.0032,-12.934 18.8003,-32.683 0.2496,-6.184 -5.4174,-14.696 -3.0921,-26.992"
         style="fill:none;fill-opacity:0;stroke:#d033ce;stroke-width:2.75339px;stroke-opacity:0.898374"
         id="path2107" />
      <path
         d="M 52.0061,249.505 C 55.2194,244.49 71.153,237.389 71.9743,217.042 72.2314,210.67 66.9909,202.039 68.2181,189.83"
         style="fill:none;fill-opacity:0;stroke:#d52dd4;stroke-width:2.76199px;stroke-opacity:0.895294"
         id="path2109" />
      <path
         d="m 50.2819,249.505 c 2.7542,-4.299 20.2906,-11.298 21.136,-32.243 0.2648,-6.559 -4.5494,-15.309 -4.4202,-27.432"
         style="fill:none;fill-opacity:0;stroke:#da27da;stroke-width:2.7706px;stroke-opacity:0.892215"
         id="path2111" />
      <path
         d="m 48.5577,249.505 c 2.2952,-3.582 21.4343,-10.48 22.3039,-32.023 0.2723,-6.747 -4.1155,-15.616 -5.0843,-27.652"
         style="fill:none;fill-opacity:0;stroke:#de21e0;stroke-width:2.7792px;stroke-opacity:0.889135"
         id="path2113" />
      <path
         d="m 46.8335,249.505 c 1.8361,-2.866 22.578,-9.661 23.4717,-31.803 0.2799,-6.934 -3.6814,-15.922 -5.7483,-27.872"
         style="fill:none;fill-opacity:0;stroke:#e31be6;stroke-width:2.7878px;stroke-opacity:0.886055"
         id="path2115" />
      <path
         d="m 45.1092,249.505 c 1.3772,-2.149 23.7218,-8.843 24.6397,-31.583 0.2874,-7.122 -3.2475,-16.229 -6.4123,-28.092"
         style="fill:none;fill-opacity:0;stroke:#e815ec;stroke-width:2.79641px;stroke-opacity:0.882976"
         id="path2117" />
      <path
         d="m 43.385,249.505 c 0.9181,-1.433 24.8655,-8.025 25.8075,-31.364 0.295,-7.309 -2.8135,-16.534 -7.0763,-28.311"
         style="fill:none;fill-opacity:0;stroke:#ed0ff2;stroke-width:2.80501px;stroke-opacity:0.879896"
         id="path2119" />
      <path
         d="m 41.6608,249.505 c 0.4591,-0.716 26.0092,-7.207 26.9754,-31.144 0.3025,-7.496 -2.3796,-16.841 -7.7404,-28.531"
         style="fill:none;fill-opacity:0;stroke:#f209f8;stroke-width:2.81362px;stroke-opacity:0.876817"
         id="path2121" />
      <path
         d="m 39.9366,249.505 c 0,0 27.1529,-6.388 28.1432,-30.924 0.3101,-7.684 -1.9455,-17.147 -8.4044,-28.751"
         style="fill:none;fill-opacity:0;stroke:#f703ff;stroke-width:2.82222px;stroke-opacity:0.873737"
         id="path2123" />
    </g>
    <g
       id="g2340"
       inkscape:label="TEKST"
       transform="translate(-0.45904173)">
      <g
         aria-label="La
"
         id="text2338"
         style="font-size:42.3333px;font-family:LauraKrtanjek;-inkscape-font-specification:LauraKrtanjek;fill:none;stroke:#f703ff;stroke-width:2.82223;stroke-opacity:0.873737">
        <path
           d="m 67.298006,215.91927 q 0.04233,2.032 0.04233,5.334 0.04233,3.25966 0.127,10.24466 0.08467,6.98499 0.127,11.59932 0.08467,4.61433 0.08467,4.572 0,-0.0423 12.826991,0.0423 12.82699,0.0847 12.82699,-0.0423 l 0.550333,-0.0847 q 0.550333,-0.0423 1.354666,-0.254 0.804332,-0.254 1.269999,-0.67733 0.677333,-0.635 0.634999,-3.429 -0.04233,-1.90499 -1.015999,-2.66699 -0.423333,-0.33867 -1.185332,-0.59267 -0.719666,-0.254 -1.227666,-0.33867 l -0.508,-0.0847 -17.779986,-0.254 -0.508,-23.36799 z"
           style="stroke-width:2.82222"
           id="path2347" />
        <path
           d="m 118.69063,241.14992 -2.28599,-2.286 -2.45534,2.37067 2.45534,1.86266 z m -11.42999,-8.38199 q 0,-0.33867 0.0847,-0.635 0.0847,-0.29633 0.127,-0.46567 0.0423,-0.21166 0.21167,-0.508 0.21166,-0.33866 0.29633,-0.42333 0.0847,-0.127 0.33866,-0.508 0.29634,-0.42333 0.381,-0.508 0.0847,-0.0847 0.33867,-0.42333 0.254,-0.381 0.29633,-0.46567 0.0847,-0.127 0.29634,-0.381 0.21166,-0.29633 0.29633,-0.381 0.127,-0.127 0.33867,-0.33866 0.21166,-0.254 0.33866,-0.381 0.16934,-0.127 0.381,-0.254 0.254,-0.16934 0.508,-0.33867 0.254,-0.127 0.46567,-0.21167 0.21167,-0.127 0.46567,-0.16933 0.29633,-0.0847 0.42333,-0.127 0.127,-0.0423 0.46566,-0.0423 0.381,-0.0423 0.46567,-0.0423 0.0847,0 0.508,0 0.46567,0 0.508,0 1.48167,0 3.47133,0.508 1.82033,0.42334 2.62467,1.016 0.76199,0.59267 1.60866,2.11667 0.67733,1.22766 1.10067,2.87866 0.67733,2.83633 0.93133,5.588 0.0423,0.33866 0.127,1.143 0.127,0.762 0.127,1.143 0.0423,0.33866 -0.0423,0.93133 -0.0423,0.59266 -0.21167,1.18533 -0.59267,1.86267 -2.37067,3.302 -0.33866,0.254 -0.76199,0.42333 -0.381,0.127 -0.55034,0.16933 -0.16933,0.0423 -0.80433,0.127 -0.635,0.0423 -0.762,0.0423 -1.98967,0.254 -4.23333,0.0847 -0.42333,-0.0423 -1.143,-0.0423 -0.67733,0 -1.05833,0 -0.381,-0.0423 -0.93133,-0.16933 -0.508,-0.16934 -1.016,-0.46567 -0.254,-0.16933 -0.42334,-0.33866 -0.16933,-0.16934 -0.29633,-0.46567 -0.127,-0.29633 -0.16933,-0.42333 -0.0423,-0.16934 -0.127,-0.635 -0.0423,-0.46567 -0.0847,-0.59267 -0.33867,-1.86267 0,-2.96333 0.0423,-0.0847 0.127,-0.42333 0.127,-0.381 0.127,-0.42334 0.0423,-0.0847 0.127,-0.381 0.127,-0.33866 0.16933,-0.42333 0.0423,-0.0847 0.127,-0.33867 0.127,-0.254 0.16934,-0.33866 0.0847,-0.127 0.21166,-0.33867 0.127,-0.21167 0.254,-0.33867 0.127,-0.127 0.29634,-0.29633 0.16933,-0.16933 0.33866,-0.33866 1.48167,-1.22767 2.87867,-1.18534 1.35466,0.0423 2.70933,0.42334 0.16933,0.0423 1.05833,0.254 0.889,0.16933 1.143,0.254 l 0.16933,-2.70934 q -0.29633,-0.67733 -1.524,-2.28599 -0.46566,-0.59267 -1.60866,-0.93134 -1.05833,-0.29633 -2.45533,-0.16933 -0.71967,0.0847 -2.286,1.778 -0.21167,0.254 -0.381,0.889 -0.16933,0.59266 -0.55033,0.80433 -1.22767,0.762 -2.37067,0.33867 -1.35466,-0.508 -1.27,-1.778 z"
           style="stroke-width:2.82222"
           id="path2349" />
      </g>
    </g>
  </g>
</svg>
