<?xml version="1.0" encoding="UTF-8" standalone="no"?>
<!-- Created with Inkscape (http://www.inkscape.org/) -->

<svg
   width="250mm"
   height="300mm"
   viewBox="0 0 250 300"
   version="1.1"
   id="svg5"
   inkscape:version="1.2.2 (732a01da63, 2022-12-09)"
   sodipodi:docname="vježba2.svg"
   xmlns:inkscape="http://www.inkscape.org/namespaces/inkscape"
   xmlns:sodipodi="http://sodipodi.sourceforge.net/DTD/sodipodi-0.dtd"
   xmlns="http://www.w3.org/2000/svg"
   xmlns:svg="http://www.w3.org/2000/svg">
  <sodipodi:namedview
     id="namedview7"
     pagecolor="#ffffff"
     bordercolor="#000000"
     borderopacity="0.25"
     inkscape:showpageshadow="2"
     inkscape:pageopacity="0.0"
     inkscape:pagecheckerboard="0"
     inkscape:deskcolor="#d1d1d1"
     inkscape:document-units="mm"
     showgrid="true"
     inkscape:zoom="0.57638187"
     inkscape:cx="690.51443"
     inkscape:cy="621.98348"
     inkscape:window-width="1600"
     inkscape:window-height="822"
     inkscape:window-x="-8"
     inkscape:window-y="-8"
     inkscape:window-maximized="1"
     inkscape:current-layer="layer1">
    <inkscape:grid
       type="xygrid"
       id="grid59"
       units="mm"
       spacingx="0.99999999"
       spacingy="0.99999999"
       empspacing="10" />
  </sodipodi:namedview>
  <defs
     id="defs2">
    <clipPath
       clipPathUnits="userSpaceOnUse"
       id="clipPath2066">
      <g
         aria-label="dm"
         transform="scale(1.0193246,0.98104177)"
         id="g2070"
         style="font-size:59.1877px;font-family:'Showcard Gothic';-inkscape-font-specification:'Showcard Gothic';fill:none;fill-opacity:0.5;stroke:#000000;stroke-width:1.77591;stroke-opacity:0.5">
        <path
           id="path2068"
           d="m 144.53672,92.894047 q -0.40461,6.069051 -1.18491,22.137583 -0.40461,9.88389 -0.60691,22.25319 h -10.46189 l -0.289,-13.61201 -10.20178,14.68132 -11.011,-14.56572 -0.289,13.49641 h -10.40409 q -0.202299,-6.61816 -0.780304,-22.36879 -0.404604,-9.07467 -1.473913,-22.021983 h 16.559837 q 0.86701,2.109718 2.97673,6.820457 1.61841,3.352426 4.42174,7.918666 1.24271,-1.96522 4.56623,-8.120967 1.18491,-2.28312 3.03453,-6.618156 z M 95.637504,115.43624 q 0,10.43298 -6.473655,16.41533 -6.675956,6.21356 -18.814058,6.21356 -7.803066,0 -12.051402,-0.78031 l -0.780306,-21.47288 q -0.375704,-8.26547 -1.358312,-22.802292 6.271353,-0.895908 13.09181,-0.895908 12.167003,0 19.045261,5.664448 7.340662,6.069052 7.340662,17.658052 z m -11.8491,3.55473 q 0,-4.24834 -2.745523,-6.27136 -2.28312,-1.67621 -5.83785,-1.53171 l -0.404603,18.12045 q 3.699231,-0.2312 6.040151,-2.39872 2.947825,-2.68772 2.947825,-7.91866 z" />
      </g>
    </clipPath>
    <clipPath
       clipPathUnits="userSpaceOnUse"
       id="clipPath2072">
      <g
         aria-label="dm"
         transform="scale(1.0193246,0.98104177)"
         id="g2076"
         style="font-size:59.1877px;font-family:'Showcard Gothic';-inkscape-font-specification:'Showcard Gothic';fill:none;fill-opacity:0.5;stroke:#000000;stroke-width:1.77591;stroke-opacity:0.5">
        <path
           id="path2074"
           d="m 144.53672,92.894047 q -0.40461,6.069051 -1.18491,22.137583 -0.40461,9.88389 -0.60691,22.25319 h -10.46189 l -0.289,-13.61201 -10.20178,14.68132 -11.011,-14.56572 -0.289,13.49641 h -10.40409 q -0.202299,-6.61816 -0.780304,-22.36879 -0.404604,-9.07467 -1.473913,-22.021983 h 16.559837 q 0.86701,2.109718 2.97673,6.820457 1.61841,3.352426 4.42174,7.918666 1.24271,-1.96522 4.56623,-8.120967 1.18491,-2.28312 3.03453,-6.618156 z M 95.637504,115.43624 q 0,10.43298 -6.473655,16.41533 -6.675956,6.21356 -18.814058,6.21356 -7.803066,0 -12.051402,-0.78031 l -0.780306,-21.47288 q -0.375704,-8.26547 -1.358312,-22.802292 6.271353,-0.895908 13.09181,-0.895908 12.167003,0 19.045261,5.664448 7.340662,6.069052 7.340662,17.658052 z m -11.8491,3.55473 q 0,-4.24834 -2.745523,-6.27136 -2.28312,-1.67621 -5.83785,-1.53171 l -0.404603,18.12045 q 3.699231,-0.2312 6.040151,-2.39872 2.947825,-2.68772 2.947825,-7.91866 z" />
      </g>
    </clipPath>
    <clipPath
       clipPathUnits="userSpaceOnUse"
       id="clipPath2078">
      <g
         aria-label="dm"
         transform="scale(1.0193246,0.98104177)"
         id="g2082"
         style="font-size:59.1877px;font-family:'Showcard Gothic';-inkscape-font-specification:'Showcard Gothic';fill:none;fill-opacity:0.5;stroke:#000000;stroke-width:1.77591;stroke-opacity:0.5">
        <path
           id="path2080"
           d="m 144.53672,92.894047 q -0.40461,6.069051 -1.18491,22.137583 -0.40461,9.88389 -0.60691,22.25319 h -10.46189 l -0.289,-13.61201 -10.20178,14.68132 -11.011,-14.56572 -0.289,13.49641 h -10.40409 q -0.202299,-6.61816 -0.780304,-22.36879 -0.404604,-9.07467 -1.473913,-22.021983 h 16.559837 q 0.86701,2.109718 2.97673,6.820457 1.61841,3.352426 4.42174,7.918666 1.24271,-1.96522 4.56623,-8.120967 1.18491,-2.28312 3.03453,-6.618156 z M 95.637504,115.43624 q 0,10.43298 -6.473655,16.41533 -6.675956,6.21356 -18.814058,6.21356 -7.803066,0 -12.051402,-0.78031 l -0.780306,-21.47288 q -0.375704,-8.26547 -1.358312,-22.802292 6.271353,-0.895908 13.09181,-0.895908 12.167003,0 19.045261,5.664448 7.340662,6.069052 7.340662,17.658052 z m -11.8491,3.55473 q 0,-4.24834 -2.745523,-6.27136 -2.28312,-1.67621 -5.83785,-1.53171 l -0.404603,18.12045 q 3.699231,-0.2312 6.040151,-2.39872 2.947825,-2.68772 2.947825,-7.91866 z" />
      </g>
    </clipPath>
  </defs>
  <g
     inkscape:label="Sloj 1"
     inkscape:groupmode="layer"
     id="layer1">
    <path
       style="display:inline;fill:none;fill-opacity:0;fill-rule:nonzero;stroke:#000000;stroke-width:0.705556;stroke-dasharray:none;stroke-opacity:0.8"
       d="m 150.10665,149.89335 c 34.88717,-41.77279 -44.98609,-58.298297 0,-80.3323"
       id="path1058"
       inkscape:label="krivulja2"
       clip-path="url(#clipPath2078)" />
    <path
       style="display:inline;fill:none;fill-opacity:0;fill-rule:nonzero;stroke:#000000;stroke-width:2.11667;stroke-dasharray:none;stroke-opacity:0.5"
       d="m 69.3153,149.89335 c -46.363214,-46.82225 0,-80.3323 0,-80.3323"
       id="path1060"
       inkscape:label="krivulja1"
       clip-path="url(#clipPath2072)" />
    <g
       id="g1902"
       style="display:inline"
       inkscape:label="blend"
       clip-path="url(#clipPath2066)">
      <path
         d="m 150.107,149.893 c 34.887,-41.772 -44.986,-58.2979 0,-80.332"
         style="fill:none;fill-opacity:0;stroke:#000000;stroke-width:0.705556px;stroke-opacity:0.8"
         id="path1818" />
      <path
         d="m 148.136,149.893 c 32.906,-41.896 -43.889,-58.8354 0,-80.332"
         style="fill:none;fill-opacity:0;stroke:#000000;stroke-width:0.739973px;stroke-opacity:0.792683"
         id="path1820" />
      <path
         d="m 146.166,149.893 c 30.923,-42.019 -42.792,-59.3728 0,-80.332"
         style="fill:none;fill-opacity:0;stroke:#000000;stroke-width:0.774391px;stroke-opacity:0.785366"
         id="path1822" />
      <path
         d="m 144.195,149.893 c 28.942,-42.142 -41.694,-59.9102 0,-80.332"
         style="fill:none;fill-opacity:0;stroke:#000000;stroke-width:0.808808px;stroke-opacity:0.778049"
         id="path1824" />
      <path
         d="m 142.225,149.893 c 26.96,-42.265 -40.598,-60.4476 0,-80.332"
         style="fill:none;fill-opacity:0;stroke:#000000;stroke-width:0.843226px;stroke-opacity:0.770732"
         id="path1826" />
      <path
         d="m 140.254,149.893 c 24.979,-42.388 -39.5,-60.985 0,-80.332"
         style="fill:none;fill-opacity:0;stroke:#000000;stroke-width:0.877643px;stroke-opacity:0.763415"
         id="path1828" />
      <path
         d="m 138.284,149.893 c 22.996,-42.511 -38.4032,-61.5224 0,-80.332"
         style="fill:none;fill-opacity:0;stroke:#000000;stroke-width:0.91206px;stroke-opacity:0.756098"
         id="path1830" />
      <path
         d="m 136.313,149.893 c 21.015,-42.635 -37.3055,-62.0598 0,-80.332"
         style="fill:none;fill-opacity:0;stroke:#000000;stroke-width:0.946478px;stroke-opacity:0.74878"
         id="path1832" />
      <path
         d="m 134.342,149.893 c 19.034,-42.758 -36.2078,-62.5973 0,-80.332"
         style="fill:none;fill-opacity:0;stroke:#000000;stroke-width:0.980895px;stroke-opacity:0.741463"
         id="path1834" />
      <path
         d="m 132.372,149.893 c 17.052,-42.881 -35.1111,-63.1347 0,-80.332"
         style="fill:none;fill-opacity:0;stroke:#000000;stroke-width:1.01531px;stroke-opacity:0.734146"
         id="path1836" />
      <path
         d="m 130.401,149.893 c 15.07,-43.004 -34.0134,-63.6721 0,-80.332"
         style="fill:none;fill-opacity:0;stroke:#000000;stroke-width:1.04973px;stroke-opacity:0.726829"
         id="path1838" />
      <path
         d="m 128.431,149.893 c 13.088,-43.127 -32.9167,-64.2095 0,-80.332"
         style="fill:none;fill-opacity:0;stroke:#000000;stroke-width:1.08415px;stroke-opacity:0.719512"
         id="path1840" />
      <path
         d="m 126.46,149.893 c 11.107,-43.25 -31.819,-64.7469 0,-80.332"
         style="fill:none;fill-opacity:0;stroke:#000000;stroke-width:1.11856px;stroke-opacity:0.712195"
         id="path1842" />
      <path
         d="m 124.49,149.893 c 9.125,-43.373 -30.7223,-65.2843 0,-80.332"
         style="fill:none;fill-opacity:0;stroke:#000000;stroke-width:1.15298px;stroke-opacity:0.704878"
         id="path1844" />
      <path
         d="m 122.519,149.893 c 7.143,-43.497 -29.6246,-65.8218 0,-80.332"
         style="fill:none;fill-opacity:0;stroke:#000000;stroke-width:1.1874px;stroke-opacity:0.697561"
         id="path1846" />
      <path
         d="m 120.549,149.893 c 5.161,-43.62 -28.5279,-66.3592 0,-80.332"
         style="fill:none;fill-opacity:0;stroke:#000000;stroke-width:1.22182px;stroke-opacity:0.690244"
         id="path1848" />
      <path
         d="m 118.578,149.893 c 3.18,-43.743 -27.4302,-66.8966 0,-80.332"
         style="fill:none;fill-opacity:0;stroke:#000000;stroke-width:1.25623px;stroke-opacity:0.682927"
         id="path1850" />
      <path
         d="m 116.608,149.893 c 1.198,-43.866 -26.3335,-67.434 0,-80.332"
         style="fill:none;fill-opacity:0;stroke:#000000;stroke-width:1.29065px;stroke-opacity:0.67561"
         id="path1852" />
      <path
         d="m 114.637,149.893 c -0.783,-43.989 -25.2358,-67.9714 0,-80.332"
         style="fill:none;fill-opacity:0;stroke:#000000;stroke-width:1.32507px;stroke-opacity:0.668293"
         id="path1854" />
      <path
         d="m 112.667,149.893 c -2.766,-44.112 -24.1391,-68.5088 0,-80.332"
         style="fill:none;fill-opacity:0;stroke:#000000;stroke-width:1.35949px;stroke-opacity:0.660976"
         id="path1856" />
      <path
         d="m 110.696,149.893 c -4.747,-44.236 -23.0414,-69.0462 0,-80.332"
         style="fill:none;fill-opacity:0;stroke:#000000;stroke-width:1.3939px;stroke-opacity:0.653659"
         id="path1858" />
      <path
         d="m 108.726,149.893 c -6.729,-44.359 -21.9447,-69.5837 0,-80.332"
         style="fill:none;fill-opacity:0;stroke:#000000;stroke-width:1.42832px;stroke-opacity:0.646341"
         id="path1860" />
      <path
         d="m 106.755,149.893 c -8.7104,-44.482 -20.847,-70.1211 0,-80.332"
         style="fill:none;fill-opacity:0;stroke:#000000;stroke-width:1.46274px;stroke-opacity:0.639024"
         id="path1862" />
      <path
         d="m 104.785,149.893 c -10.6926,-44.605 -19.7503,-70.6585 0,-80.332"
         style="fill:none;fill-opacity:0;stroke:#000000;stroke-width:1.49716px;stroke-opacity:0.631707"
         id="path1864" />
      <path
         d="m 102.814,149.893 c -12.6739,-44.728 -18.6526,-71.1959 0,-80.332"
         style="fill:none;fill-opacity:0;stroke:#000000;stroke-width:1.53157px;stroke-opacity:0.62439"
         id="path1866" />
      <path
         d="m 100.844,149.893 c -14.6561,-44.851 -17.5559,-71.7333 0,-80.332"
         style="fill:none;fill-opacity:0;stroke:#000000;stroke-width:1.56599px;stroke-opacity:0.617073"
         id="path1868" />
      <path
         d="m 98.8731,149.893 c -16.6375,-44.975 -16.4583,-72.2707 0,-80.332"
         style="fill:none;fill-opacity:0;stroke:#000000;stroke-width:1.60041px;stroke-opacity:0.609756"
         id="path1870" />
      <path
         d="m 96.9026,149.893 c -18.6192,-45.098 -15.3611,-72.8081 0,-80.332"
         style="fill:none;fill-opacity:0;stroke:#000000;stroke-width:1.63483px;stroke-opacity:0.602439"
         id="path1872" />
      <path
         d="m 94.9321,149.893 c -20.6009,-45.221 -14.2639,-73.3456 0,-80.332"
         style="fill:none;fill-opacity:0;stroke:#000000;stroke-width:1.66924px;stroke-opacity:0.595122"
         id="path1874" />
      <path
         d="m 92.9615,149.893 c -22.5826,-45.344 -13.1666,-73.883 0,-80.332"
         style="fill:none;fill-opacity:0;stroke:#000000;stroke-width:1.70366px;stroke-opacity:0.587805"
         id="path1876" />
      <path
         d="m 90.991,149.893 c -24.5643,-45.467 -12.0694,-74.4204 0,-80.332"
         style="fill:none;fill-opacity:0;stroke:#000000;stroke-width:1.73808px;stroke-opacity:0.580488"
         id="path1878" />
      <path
         d="m 89.0205,149.893 c -26.546,-45.59 -10.9722,-74.9578 0,-80.332"
         style="fill:none;fill-opacity:0;stroke:#000000;stroke-width:1.7725px;stroke-opacity:0.573171"
         id="path1880" />
      <path
         d="M 87.05,149.893 C 58.5222,104.18 77.175,74.3978 87.05,69.561"
         style="fill:none;fill-opacity:0;stroke:#000000;stroke-width:1.80691px;stroke-opacity:0.565854"
         id="path1882" />
      <path
         d="m 85.0795,149.893 c -30.5095,-45.837 -8.7778,-76.0326 0,-80.332"
         style="fill:none;fill-opacity:0;stroke:#000000;stroke-width:1.84133px;stroke-opacity:0.558537"
         id="path1884" />
      <path
         d="m 83.1089,149.893 c -32.4912,-45.96 -7.6805,-76.57 0,-80.332"
         style="fill:none;fill-opacity:0;stroke:#000000;stroke-width:1.87575px;stroke-opacity:0.55122"
         id="path1886" />
      <path
         d="m 81.1384,149.893 c -34.4729,-46.083 -6.5833,-77.1075 0,-80.332"
         style="fill:none;fill-opacity:0;stroke:#000000;stroke-width:1.91017px;stroke-opacity:0.543902"
         id="path1888" />
      <path
         d="m 79.1679,149.893 c -36.4546,-46.206 -5.4861,-77.6449 0,-80.332"
         style="fill:none;fill-opacity:0;stroke:#000000;stroke-width:1.94458px;stroke-opacity:0.536585"
         id="path1890" />
      <path
         d="m 77.1974,149.893 c -38.4364,-46.329 -4.3889,-78.1823 0,-80.332"
         style="fill:none;fill-opacity:0;stroke:#000000;stroke-width:1.979px;stroke-opacity:0.529268"
         id="path1892" />
      <path
         d="m 75.2269,149.893 c -40.4181,-46.452 -3.2917,-78.7197 0,-80.332"
         style="fill:none;fill-opacity:0;stroke:#000000;stroke-width:2.01342px;stroke-opacity:0.521951"
         id="path1894" />
      <path
         d="m 73.2563,149.893 c -42.3997,-46.576 -2.1944,-79.2571 0,-80.332"
         style="fill:none;fill-opacity:0;stroke:#000000;stroke-width:2.04784px;stroke-opacity:0.514634"
         id="path1896" />
      <path
         d="m 71.2858,149.893 c -44.3815,-46.699 -1.0972,-79.7945 0,-80.332"
         style="fill:none;fill-opacity:0;stroke:#000000;stroke-width:2.08225px;stroke-opacity:0.507317"
         id="path1898" />
      <path
         d="m 69.3153,149.893 c -46.3632,-46.822 0,-80.332 0,-80.332"
         style="fill:none;fill-opacity:0;stroke:#000000;stroke-width:2.11667px;stroke-opacity:0.5"
         id="path1900" />
    </g>
    <g
       aria-label="dm"
       transform="scale(1.0193246,0.98104176)"
       id="g2064"
       style="font-size:59.1877px;font-family:'Showcard Gothic';-inkscape-font-specification:'Showcard Gothic';fill:none;fill-opacity:0.5;stroke:#000000;stroke-width:1.77591;stroke-opacity:0.5"
       inkscape:label="tekst">
      <path
         id="path2062"
         d="m 144.53672,92.894047 q -0.40461,6.069051 -1.18491,22.137583 -0.40461,9.88389 -0.60691,22.25319 h -10.46189 l -0.289,-13.61201 -10.20178,14.68132 -11.011,-14.56572 -0.289,13.49641 h -10.40409 q -0.202299,-6.61816 -0.780304,-22.36879 -0.404604,-9.07467 -1.473913,-22.021983 h 16.559837 q 0.86701,2.109718 2.97673,6.820457 1.61841,3.352426 4.42174,7.918666 1.24271,-1.96522 4.56623,-8.120967 1.18491,-2.28312 3.03453,-6.618156 z M 95.637504,115.43624 q 0,10.43298 -6.473655,16.41533 -6.675956,6.21356 -18.814058,6.21356 -7.803066,0 -12.051402,-0.78031 l -0.780306,-21.47288 q -0.375704,-8.26547 -1.358312,-22.802292 6.271353,-0.895908 13.09181,-0.895908 12.167003,0 19.045261,5.664448 7.340662,6.069052 7.340662,17.658052 z m -11.8491,3.55473 q 0,-4.24834 -2.745523,-6.27136 -2.28312,-1.67621 -5.83785,-1.53171 l -0.404603,18.12045 q 3.699231,-0.2312 6.040151,-2.39872 2.947825,-2.68772 2.947825,-7.91866 z" />
    </g>
  </g>
</svg>
